G04 #@! TF.GenerationSoftware,KiCad,Pcbnew,(5.1.0)-1*
G04 #@! TF.CreationDate,2019-04-30T21:22:08-04:00*
G04 #@! TF.ProjectId,MIcroscope_Light,4d496372-6f73-4636-9f70-655f4c696768,rev?*
G04 #@! TF.SameCoordinates,Original*
G04 #@! TF.FileFunction,Legend,Bot*
G04 #@! TF.FilePolarity,Positive*
%FSLAX46Y46*%
G04 Gerber Fmt 4.6, Leading zero omitted, Abs format (unit mm)*
G04 Created by KiCad (PCBNEW (5.1.0)-1) date 2019-04-30 21:22:08*
%MOMM*%
%LPD*%
G04 APERTURE LIST*
%ADD10C,0.150000*%
%ADD11C,0.050000*%
%ADD12C,0.120000*%
%ADD13R,2.001600X1.276600*%
%ADD14R,2.001600X2.476600*%
%ADD15R,2.201600X1.576600*%
%ADD16R,1.481600X0.551600*%
%ADD17C,3.101600*%
%ADD18C,1.346600*%
%ADD19C,0.100000*%
%ADD20R,2.601600X1.101600*%
%ADD21C,1.000000*%
%ADD22C,1.101600*%
%ADD23R,1.101600X2.601600*%
G04 APERTURE END LIST*
D10*
X137342857Y-58427380D02*
X137342857Y-57427380D01*
X137009523Y-58141666D01*
X136676190Y-57427380D01*
X136676190Y-58427380D01*
X136200000Y-58427380D02*
X136200000Y-57760714D01*
X136200000Y-57427380D02*
X136247619Y-57475000D01*
X136200000Y-57522619D01*
X136152380Y-57475000D01*
X136200000Y-57427380D01*
X136200000Y-57522619D01*
X135295238Y-58379761D02*
X135390476Y-58427380D01*
X135580952Y-58427380D01*
X135676190Y-58379761D01*
X135723809Y-58332142D01*
X135771428Y-58236904D01*
X135771428Y-57951190D01*
X135723809Y-57855952D01*
X135676190Y-57808333D01*
X135580952Y-57760714D01*
X135390476Y-57760714D01*
X135295238Y-57808333D01*
X134866666Y-58427380D02*
X134866666Y-57760714D01*
X134866666Y-57951190D02*
X134819047Y-57855952D01*
X134771428Y-57808333D01*
X134676190Y-57760714D01*
X134580952Y-57760714D01*
X134104761Y-58427380D02*
X134200000Y-58379761D01*
X134247619Y-58332142D01*
X134295238Y-58236904D01*
X134295238Y-57951190D01*
X134247619Y-57855952D01*
X134200000Y-57808333D01*
X134104761Y-57760714D01*
X133961904Y-57760714D01*
X133866666Y-57808333D01*
X133819047Y-57855952D01*
X133771428Y-57951190D01*
X133771428Y-58236904D01*
X133819047Y-58332142D01*
X133866666Y-58379761D01*
X133961904Y-58427380D01*
X134104761Y-58427380D01*
X133390476Y-58379761D02*
X133295238Y-58427380D01*
X133104761Y-58427380D01*
X133009523Y-58379761D01*
X132961904Y-58284523D01*
X132961904Y-58236904D01*
X133009523Y-58141666D01*
X133104761Y-58094047D01*
X133247619Y-58094047D01*
X133342857Y-58046428D01*
X133390476Y-57951190D01*
X133390476Y-57903571D01*
X133342857Y-57808333D01*
X133247619Y-57760714D01*
X133104761Y-57760714D01*
X133009523Y-57808333D01*
X132104761Y-58379761D02*
X132200000Y-58427380D01*
X132390476Y-58427380D01*
X132485714Y-58379761D01*
X132533333Y-58332142D01*
X132580952Y-58236904D01*
X132580952Y-57951190D01*
X132533333Y-57855952D01*
X132485714Y-57808333D01*
X132390476Y-57760714D01*
X132200000Y-57760714D01*
X132104761Y-57808333D01*
X131533333Y-58427380D02*
X131628571Y-58379761D01*
X131676190Y-58332142D01*
X131723809Y-58236904D01*
X131723809Y-57951190D01*
X131676190Y-57855952D01*
X131628571Y-57808333D01*
X131533333Y-57760714D01*
X131390476Y-57760714D01*
X131295238Y-57808333D01*
X131247619Y-57855952D01*
X131200000Y-57951190D01*
X131200000Y-58236904D01*
X131247619Y-58332142D01*
X131295238Y-58379761D01*
X131390476Y-58427380D01*
X131533333Y-58427380D01*
X130771428Y-57760714D02*
X130771428Y-58760714D01*
X130771428Y-57808333D02*
X130676190Y-57760714D01*
X130485714Y-57760714D01*
X130390476Y-57808333D01*
X130342857Y-57855952D01*
X130295238Y-57951190D01*
X130295238Y-58236904D01*
X130342857Y-58332142D01*
X130390476Y-58379761D01*
X130485714Y-58427380D01*
X130676190Y-58427380D01*
X130771428Y-58379761D01*
X129485714Y-58379761D02*
X129580952Y-58427380D01*
X129771428Y-58427380D01*
X129866666Y-58379761D01*
X129914285Y-58284523D01*
X129914285Y-57903571D01*
X129866666Y-57808333D01*
X129771428Y-57760714D01*
X129580952Y-57760714D01*
X129485714Y-57808333D01*
X129438095Y-57903571D01*
X129438095Y-57998809D01*
X129914285Y-58094047D01*
X127771428Y-58427380D02*
X128247619Y-58427380D01*
X128247619Y-57427380D01*
X127438095Y-58427380D02*
X127438095Y-57760714D01*
X127438095Y-57427380D02*
X127485714Y-57475000D01*
X127438095Y-57522619D01*
X127390476Y-57475000D01*
X127438095Y-57427380D01*
X127438095Y-57522619D01*
X126533333Y-57760714D02*
X126533333Y-58570238D01*
X126580952Y-58665476D01*
X126628571Y-58713095D01*
X126723809Y-58760714D01*
X126866666Y-58760714D01*
X126961904Y-58713095D01*
X126533333Y-58379761D02*
X126628571Y-58427380D01*
X126819047Y-58427380D01*
X126914285Y-58379761D01*
X126961904Y-58332142D01*
X127009523Y-58236904D01*
X127009523Y-57951190D01*
X126961904Y-57855952D01*
X126914285Y-57808333D01*
X126819047Y-57760714D01*
X126628571Y-57760714D01*
X126533333Y-57808333D01*
X126057142Y-58427380D02*
X126057142Y-57427380D01*
X125628571Y-58427380D02*
X125628571Y-57903571D01*
X125676190Y-57808333D01*
X125771428Y-57760714D01*
X125914285Y-57760714D01*
X126009523Y-57808333D01*
X126057142Y-57855952D01*
X125295238Y-57760714D02*
X124914285Y-57760714D01*
X125152380Y-57427380D02*
X125152380Y-58284523D01*
X125104761Y-58379761D01*
X125009523Y-58427380D01*
X124914285Y-58427380D01*
X136057142Y-60029761D02*
X135914285Y-60077380D01*
X135676190Y-60077380D01*
X135580952Y-60029761D01*
X135533333Y-59982142D01*
X135485714Y-59886904D01*
X135485714Y-59791666D01*
X135533333Y-59696428D01*
X135580952Y-59648809D01*
X135676190Y-59601190D01*
X135866666Y-59553571D01*
X135961904Y-59505952D01*
X136009523Y-59458333D01*
X136057142Y-59363095D01*
X136057142Y-59267857D01*
X136009523Y-59172619D01*
X135961904Y-59125000D01*
X135866666Y-59077380D01*
X135628571Y-59077380D01*
X135485714Y-59125000D01*
X135057142Y-59982142D02*
X135009523Y-60029761D01*
X135057142Y-60077380D01*
X135104761Y-60029761D01*
X135057142Y-59982142D01*
X135057142Y-60077380D01*
X133819047Y-60077380D02*
X133819047Y-59077380D01*
X133580952Y-59077380D01*
X133438095Y-59125000D01*
X133342857Y-59220238D01*
X133295238Y-59315476D01*
X133247619Y-59505952D01*
X133247619Y-59648809D01*
X133295238Y-59839285D01*
X133342857Y-59934523D01*
X133438095Y-60029761D01*
X133580952Y-60077380D01*
X133819047Y-60077380D01*
X132771428Y-59077380D02*
X132866666Y-59267857D01*
X132390476Y-59791666D02*
X131914285Y-59791666D01*
X132485714Y-60077380D02*
X132152380Y-59077380D01*
X131819047Y-60077380D01*
X131342857Y-60077380D02*
X131438095Y-60029761D01*
X131485714Y-59934523D01*
X131485714Y-59077380D01*
X130961904Y-60077380D02*
X130961904Y-59410714D01*
X130961904Y-59077380D02*
X131009523Y-59125000D01*
X130961904Y-59172619D01*
X130914285Y-59125000D01*
X130961904Y-59077380D01*
X130961904Y-59172619D01*
X130485714Y-60077380D02*
X130485714Y-59410714D01*
X130485714Y-59505952D02*
X130438095Y-59458333D01*
X130342857Y-59410714D01*
X130200000Y-59410714D01*
X130104761Y-59458333D01*
X130057142Y-59553571D01*
X130057142Y-60077380D01*
X130057142Y-59553571D02*
X130009523Y-59458333D01*
X129914285Y-59410714D01*
X129771428Y-59410714D01*
X129676190Y-59458333D01*
X129628571Y-59553571D01*
X129628571Y-60077380D01*
X129009523Y-60077380D02*
X129104761Y-60029761D01*
X129152380Y-59982142D01*
X129200000Y-59886904D01*
X129200000Y-59601190D01*
X129152380Y-59505952D01*
X129104761Y-59458333D01*
X129009523Y-59410714D01*
X128866666Y-59410714D01*
X128771428Y-59458333D01*
X128723809Y-59505952D01*
X128676190Y-59601190D01*
X128676190Y-59886904D01*
X128723809Y-59982142D01*
X128771428Y-60029761D01*
X128866666Y-60077380D01*
X129009523Y-60077380D01*
X128247619Y-59410714D02*
X128247619Y-60077380D01*
X128247619Y-59505952D02*
X128200000Y-59458333D01*
X128104761Y-59410714D01*
X127961904Y-59410714D01*
X127866666Y-59458333D01*
X127819047Y-59553571D01*
X127819047Y-60077380D01*
X127485714Y-59410714D02*
X127104761Y-59410714D01*
X127342857Y-59077380D02*
X127342857Y-59934523D01*
X127295238Y-60029761D01*
X127200000Y-60077380D01*
X127104761Y-60077380D01*
X126390476Y-60029761D02*
X126485714Y-60077380D01*
X126676190Y-60077380D01*
X126771428Y-60029761D01*
X126819047Y-59934523D01*
X126819047Y-59553571D01*
X126771428Y-59458333D01*
X126676190Y-59410714D01*
X126485714Y-59410714D01*
X126390476Y-59458333D01*
X126342857Y-59553571D01*
X126342857Y-59648809D01*
X126819047Y-59744047D01*
D11*
X147075000Y-91500000D02*
G75*
G03X147075000Y-91500000I-17575000J0D01*
G01*
X141450000Y-72950000D02*
G75*
G02X117550000Y-72950000I-11950000J-18550000D01*
G01*
X141500000Y-46850000D02*
X141450000Y-72950000D01*
X117550000Y-46850000D02*
X141500000Y-46850000D01*
X117550000Y-72950000D02*
X117550000Y-46850000D01*
D12*
X117650000Y-63760000D02*
X117910000Y-63760000D01*
X120190000Y-63760000D02*
X121960000Y-63760000D01*
X121960000Y-63760000D02*
X121960000Y-63380000D01*
X121960000Y-56140000D02*
X120190000Y-56140000D01*
X117910000Y-56140000D02*
X117650000Y-56140000D01*
X121960000Y-56140000D02*
X121960000Y-56520000D01*
X120729958Y-72767437D02*
X121931002Y-72269948D01*
X121426442Y-74448898D02*
X122627486Y-73951409D01*
X110119948Y-84381002D02*
X110617437Y-83179958D01*
X111801409Y-85077486D02*
X112298898Y-83876442D01*
X110748591Y-100527486D02*
X110251102Y-99326442D01*
X112430052Y-99831002D02*
X111932563Y-98629958D01*
X122102280Y-110889475D02*
X120901236Y-110391986D01*
X122798764Y-109208014D02*
X121597720Y-108710525D01*
X139027486Y-110001409D02*
X137826442Y-110498898D01*
X138331002Y-108319948D02*
X137129958Y-108817437D01*
X149589475Y-97097720D02*
X149091986Y-98298764D01*
X147908014Y-96401236D02*
X147410525Y-97602280D01*
X148082563Y-81829958D02*
X148580052Y-83031002D01*
X146401102Y-82526442D02*
X146898591Y-83727486D01*
X135697720Y-71510525D02*
X136898764Y-72008014D01*
X135001236Y-73191986D02*
X136202280Y-73689475D01*
D10*
X129275000Y-71400000D02*
X129275000Y-70675000D01*
X129275000Y-71375000D02*
X129275000Y-72025000D01*
X129250000Y-71350000D02*
X128125000Y-72050000D01*
X128150000Y-70650000D02*
X129250000Y-71350000D01*
X128150000Y-72050000D02*
X128150000Y-70650000D01*
X127525000Y-70650000D02*
X127525000Y-72050000D01*
X130525000Y-70650000D02*
X127525000Y-70650000D01*
X130525000Y-72050000D02*
X130525000Y-70650000D01*
X127575000Y-72050000D02*
X130525000Y-72050000D01*
X115376256Y-77544454D02*
X114863604Y-77031802D01*
X115358579Y-77526777D02*
X115818198Y-77986396D01*
X115323223Y-77526777D02*
X115022703Y-78817247D01*
X114050431Y-77809619D02*
X115323223Y-77526777D01*
X115040381Y-78799569D02*
X114050431Y-77809619D01*
X113608489Y-78251561D02*
X114598439Y-79241511D01*
X115729810Y-76130241D02*
X113608489Y-78251561D01*
X116719759Y-77120190D02*
X115729810Y-76130241D01*
X114633794Y-79206155D02*
X116719759Y-77120190D01*
X109550000Y-91575000D02*
X108825000Y-91575000D01*
X109525000Y-91575000D02*
X110175000Y-91575000D01*
X109500000Y-91600000D02*
X110200000Y-92725000D01*
X108800000Y-92700000D02*
X109500000Y-91600000D01*
X110200000Y-92700000D02*
X108800000Y-92700000D01*
X108800000Y-93325000D02*
X110200000Y-93325000D01*
X108800000Y-90325000D02*
X108800000Y-93325000D01*
X110200000Y-90325000D02*
X108800000Y-90325000D01*
X110200000Y-93275000D02*
X110200000Y-90325000D01*
X115694454Y-105473744D02*
X115181802Y-105986396D01*
X115676777Y-105491421D02*
X116136396Y-105031802D01*
X115676777Y-105526777D02*
X116967247Y-105827297D01*
X115959619Y-106799569D02*
X115676777Y-105526777D01*
X116949569Y-105809619D02*
X115959619Y-106799569D01*
X116401561Y-107241511D02*
X117391511Y-106251561D01*
X114280241Y-105120190D02*
X116401561Y-107241511D01*
X115270190Y-104130241D02*
X114280241Y-105120190D01*
X117356155Y-106216206D02*
X115270190Y-104130241D01*
X129725000Y-111300000D02*
X129725000Y-112025000D01*
X129725000Y-111325000D02*
X129725000Y-110675000D01*
X129750000Y-111350000D02*
X130875000Y-110650000D01*
X130850000Y-112050000D02*
X129750000Y-111350000D01*
X130850000Y-110650000D02*
X130850000Y-112050000D01*
X131475000Y-112050000D02*
X131475000Y-110650000D01*
X128475000Y-112050000D02*
X131475000Y-112050000D01*
X128475000Y-110650000D02*
X128475000Y-112050000D01*
X131425000Y-110650000D02*
X128475000Y-110650000D01*
X144687940Y-104091350D02*
X145200592Y-104604002D01*
X144705617Y-104109027D02*
X144245998Y-103649408D01*
X144740973Y-104109027D02*
X145041493Y-102818557D01*
X146013765Y-103826185D02*
X144740973Y-104109027D01*
X145023815Y-102836235D02*
X146013765Y-103826185D01*
X146455707Y-103384243D02*
X145465757Y-102394293D01*
X144334386Y-105505563D02*
X146455707Y-103384243D01*
X143344437Y-104515614D02*
X144334386Y-105505563D01*
X145430402Y-102429649D02*
X143344437Y-104515614D01*
X149450000Y-91125000D02*
X150175000Y-91125000D01*
X149475000Y-91125000D02*
X148825000Y-91125000D01*
X149500000Y-91100000D02*
X148800000Y-89975000D01*
X150200000Y-90000000D02*
X149500000Y-91100000D01*
X148800000Y-90000000D02*
X150200000Y-90000000D01*
X150200000Y-89375000D02*
X148800000Y-89375000D01*
X150200000Y-92375000D02*
X150200000Y-89375000D01*
X148800000Y-92375000D02*
X150200000Y-92375000D01*
X148800000Y-89425000D02*
X148800000Y-92375000D01*
X142241350Y-76162060D02*
X142754002Y-75649408D01*
X142259027Y-76144383D02*
X141799408Y-76604002D01*
X142259027Y-76109027D02*
X140968557Y-75808507D01*
X141976185Y-74836235D02*
X142259027Y-76109027D01*
X140986235Y-75826185D02*
X141976185Y-74836235D01*
X141534243Y-74394293D02*
X140544293Y-75384243D01*
X143655563Y-76515614D02*
X141534243Y-74394293D01*
X142665614Y-77505563D02*
X143655563Y-76515614D01*
X140579649Y-75419598D02*
X142665614Y-77505563D01*
%LPC*%
D13*
X119050000Y-59110000D03*
X119050000Y-60790000D03*
D14*
X119050000Y-57040000D03*
X119050000Y-62860000D03*
D15*
X121350000Y-57487500D03*
X121350000Y-62412500D03*
D16*
X121710000Y-58650000D03*
X121710000Y-59300000D03*
X121710000Y-59950000D03*
X121710000Y-60600000D03*
X121710000Y-61250000D03*
D17*
X122050000Y-51350000D03*
X136950000Y-51350000D03*
X122050000Y-69000000D03*
X137000000Y-69000000D03*
D18*
X123150000Y-72750000D03*
D19*
G36*
X122891807Y-73886085D02*
G01*
X122164097Y-72129236D01*
X123408193Y-71613915D01*
X124135903Y-73370764D01*
X122891807Y-73886085D01*
X122891807Y-73886085D01*
G37*
D18*
X120207444Y-73968846D03*
D19*
G36*
X119949251Y-75104931D02*
G01*
X119221541Y-73348082D01*
X120465637Y-72832761D01*
X121193347Y-74589610D01*
X119949251Y-75104931D01*
X119949251Y-75104931D01*
G37*
D18*
X111818846Y-82657444D03*
D19*
G36*
X112439610Y-83643347D02*
G01*
X110682761Y-82915637D01*
X111198082Y-81671541D01*
X112954931Y-82399251D01*
X112439610Y-83643347D01*
X112439610Y-83643347D01*
G37*
D18*
X110600000Y-85600000D03*
D19*
G36*
X111220764Y-86585903D02*
G01*
X109463915Y-85858193D01*
X109979236Y-84614097D01*
X111736085Y-85341807D01*
X111220764Y-86585903D01*
X111220764Y-86585903D01*
G37*
D18*
X110731154Y-98107444D03*
D19*
G36*
X111867239Y-98365637D02*
G01*
X110110390Y-99093347D01*
X109595069Y-97849251D01*
X111351918Y-97121541D01*
X111867239Y-98365637D01*
X111867239Y-98365637D01*
G37*
D18*
X111950000Y-101050000D03*
D19*
G36*
X113086085Y-101308193D02*
G01*
X111329236Y-102035903D01*
X110813915Y-100791807D01*
X112570764Y-100064097D01*
X113086085Y-101308193D01*
X113086085Y-101308193D01*
G37*
D18*
X120378722Y-109190577D03*
D19*
G36*
X121364625Y-108569813D02*
G01*
X120636915Y-110326662D01*
X119392819Y-109811341D01*
X120120529Y-108054492D01*
X121364625Y-108569813D01*
X121364625Y-108569813D01*
G37*
D18*
X123321278Y-110409423D03*
D19*
G36*
X124307181Y-109788659D02*
G01*
X123579471Y-111545508D01*
X122335375Y-111030187D01*
X123063085Y-109273338D01*
X124307181Y-109788659D01*
X124307181Y-109788659D01*
G37*
D18*
X136607444Y-110018846D03*
D19*
G36*
X136865637Y-108882761D02*
G01*
X137593347Y-110639610D01*
X136349251Y-111154931D01*
X135621541Y-109398082D01*
X136865637Y-108882761D01*
X136865637Y-108882761D01*
G37*
D18*
X139550000Y-108800000D03*
D19*
G36*
X139808193Y-107663915D02*
G01*
X140535903Y-109420764D01*
X139291807Y-109936085D01*
X138564097Y-108179236D01*
X139808193Y-107663915D01*
X139808193Y-107663915D01*
G37*
D18*
X147890577Y-98821278D03*
D19*
G36*
X147269813Y-97835375D02*
G01*
X149026662Y-98563085D01*
X148511341Y-99807181D01*
X146754492Y-99079471D01*
X147269813Y-97835375D01*
X147269813Y-97835375D01*
G37*
D18*
X149109423Y-95878722D03*
D19*
G36*
X148488659Y-94892819D02*
G01*
X150245508Y-95620529D01*
X149730187Y-96864625D01*
X147973338Y-96136915D01*
X148488659Y-94892819D01*
X148488659Y-94892819D01*
G37*
D18*
X148100000Y-84250000D03*
D19*
G36*
X146963915Y-83991807D02*
G01*
X148720764Y-83264097D01*
X149236085Y-84508193D01*
X147479236Y-85235903D01*
X146963915Y-83991807D01*
X146963915Y-83991807D01*
G37*
D18*
X146881154Y-81307444D03*
D19*
G36*
X145745069Y-81049251D02*
G01*
X147501918Y-80321541D01*
X148017239Y-81565637D01*
X146260390Y-82293347D01*
X145745069Y-81049251D01*
X145745069Y-81049251D01*
G37*
D18*
X137421278Y-73209423D03*
D19*
G36*
X136435375Y-73830187D02*
G01*
X137163085Y-72073338D01*
X138407181Y-72588659D01*
X137679471Y-74345508D01*
X136435375Y-73830187D01*
X136435375Y-73830187D01*
G37*
D18*
X134478722Y-71990577D03*
D19*
G36*
X133492819Y-72611341D02*
G01*
X134220529Y-70854492D01*
X135464625Y-71369813D01*
X134736915Y-73126662D01*
X133492819Y-72611341D01*
X133492819Y-72611341D01*
G37*
D20*
X129925000Y-71350000D03*
D21*
X127575000Y-71350000D03*
D19*
G36*
X127729980Y-70349445D02*
G01*
X127739735Y-70350406D01*
X127749501Y-70352348D01*
X127758880Y-70355193D01*
X127768082Y-70359005D01*
X127776727Y-70363626D01*
X127785008Y-70369159D01*
X127792584Y-70375377D01*
X127799623Y-70382416D01*
X127805841Y-70389992D01*
X127811374Y-70398273D01*
X127815995Y-70406918D01*
X127819807Y-70416120D01*
X127822652Y-70425499D01*
X127824594Y-70435265D01*
X127825555Y-70445020D01*
X127825800Y-70450000D01*
X127825800Y-70799200D01*
X128125000Y-70799200D01*
X128134911Y-70800176D01*
X128144440Y-70803067D01*
X128153223Y-70807761D01*
X128160921Y-70814079D01*
X128167239Y-70821777D01*
X128171933Y-70830560D01*
X128174824Y-70840089D01*
X128175800Y-70850000D01*
X128175800Y-71850000D01*
X128174824Y-71859911D01*
X128171933Y-71869440D01*
X128167239Y-71878223D01*
X128160921Y-71885921D01*
X128153223Y-71892239D01*
X128144440Y-71896933D01*
X128134911Y-71899824D01*
X128125000Y-71900800D01*
X127825800Y-71900800D01*
X127825800Y-72350000D01*
X127825555Y-72354980D01*
X127824594Y-72364735D01*
X127822652Y-72374501D01*
X127819807Y-72383880D01*
X127815995Y-72393082D01*
X127811374Y-72401727D01*
X127805841Y-72410008D01*
X127799623Y-72417584D01*
X127792584Y-72424623D01*
X127785008Y-72430841D01*
X127776727Y-72436374D01*
X127768082Y-72440995D01*
X127758880Y-72444807D01*
X127749501Y-72447652D01*
X127739735Y-72449594D01*
X127729980Y-72450555D01*
X127725000Y-72450800D01*
X127025000Y-72450800D01*
X127020020Y-72450555D01*
X127010265Y-72449594D01*
X127000499Y-72447652D01*
X126991120Y-72444807D01*
X126981918Y-72440995D01*
X126973273Y-72436374D01*
X126964992Y-72430841D01*
X126957416Y-72424623D01*
X126950377Y-72417584D01*
X126944159Y-72410008D01*
X126938626Y-72401727D01*
X126934005Y-72393082D01*
X126930193Y-72383880D01*
X126927348Y-72374501D01*
X126925406Y-72364735D01*
X126924445Y-72354980D01*
X126924200Y-72350000D01*
X126924200Y-70450000D01*
X126924445Y-70445020D01*
X126925406Y-70435265D01*
X126927348Y-70425499D01*
X126930193Y-70416120D01*
X126934005Y-70406918D01*
X126938626Y-70398273D01*
X126944159Y-70389992D01*
X126950377Y-70382416D01*
X126957416Y-70375377D01*
X126964992Y-70369159D01*
X126973273Y-70363626D01*
X126981918Y-70359005D01*
X126991120Y-70355193D01*
X127000499Y-70352348D01*
X127010265Y-70350406D01*
X127020020Y-70349445D01*
X127025000Y-70349200D01*
X127725000Y-70349200D01*
X127729980Y-70349445D01*
X127729980Y-70349445D01*
G37*
D22*
X115800520Y-77049480D03*
D19*
G36*
X115270190Y-78358759D02*
G01*
X114491241Y-77579810D01*
X116330850Y-75740201D01*
X117109799Y-76519150D01*
X115270190Y-78358759D01*
X115270190Y-78358759D01*
G37*
D21*
X114138819Y-78711181D03*
D19*
G36*
X113540907Y-77894094D02*
G01*
X113548485Y-77887876D01*
X113556763Y-77882344D01*
X113565407Y-77877723D01*
X113574609Y-77873912D01*
X113583990Y-77871067D01*
X113593758Y-77869124D01*
X113603512Y-77868163D01*
X113613466Y-77868163D01*
X113623220Y-77869124D01*
X113632988Y-77871067D01*
X113642369Y-77873912D01*
X113651571Y-77877723D01*
X113660214Y-77882344D01*
X113668493Y-77887876D01*
X113676071Y-77894094D01*
X113679765Y-77897443D01*
X113926687Y-78144364D01*
X114138253Y-77932798D01*
X114145952Y-77926480D01*
X114154734Y-77921786D01*
X114164264Y-77918895D01*
X114174174Y-77917919D01*
X114184085Y-77918895D01*
X114193615Y-77921786D01*
X114202397Y-77926480D01*
X114210095Y-77932798D01*
X114917202Y-78639905D01*
X114923520Y-78647603D01*
X114928214Y-78656385D01*
X114931105Y-78665915D01*
X114932081Y-78675826D01*
X114931105Y-78685736D01*
X114928214Y-78695266D01*
X114923520Y-78704048D01*
X114917202Y-78711747D01*
X114705636Y-78923313D01*
X115023268Y-79240945D01*
X115026616Y-79244640D01*
X115032835Y-79252217D01*
X115038367Y-79260496D01*
X115042987Y-79269140D01*
X115046799Y-79278342D01*
X115049644Y-79287723D01*
X115051587Y-79297491D01*
X115052547Y-79307244D01*
X115052547Y-79317199D01*
X115051587Y-79326953D01*
X115049644Y-79336721D01*
X115046799Y-79346101D01*
X115042987Y-79355304D01*
X115038367Y-79363947D01*
X115032835Y-79372226D01*
X115026616Y-79379803D01*
X115023268Y-79383498D01*
X114528293Y-79878473D01*
X114524599Y-79881821D01*
X114517021Y-79888039D01*
X114508743Y-79893572D01*
X114500099Y-79898192D01*
X114490897Y-79902003D01*
X114481516Y-79904849D01*
X114471748Y-79906792D01*
X114461994Y-79907752D01*
X114452040Y-79907752D01*
X114442286Y-79906792D01*
X114432518Y-79904849D01*
X114423137Y-79902003D01*
X114413935Y-79898192D01*
X114405291Y-79893572D01*
X114397013Y-79888039D01*
X114389435Y-79881821D01*
X114385741Y-79878473D01*
X113042238Y-78534970D01*
X113038890Y-78531275D01*
X113032671Y-78523698D01*
X113027139Y-78515419D01*
X113022519Y-78506776D01*
X113018707Y-78497573D01*
X113015862Y-78488193D01*
X113013919Y-78478425D01*
X113012959Y-78468671D01*
X113012959Y-78458716D01*
X113013919Y-78448962D01*
X113015862Y-78439194D01*
X113018707Y-78429814D01*
X113022519Y-78420612D01*
X113027139Y-78411968D01*
X113032671Y-78403689D01*
X113038890Y-78396112D01*
X113042238Y-78392417D01*
X113537213Y-77897443D01*
X113540907Y-77894094D01*
X113540907Y-77894094D01*
G37*
D23*
X109500000Y-90925000D03*
D21*
X109500000Y-93275000D03*
D19*
G36*
X108499445Y-93120020D02*
G01*
X108500406Y-93110265D01*
X108502348Y-93100499D01*
X108505193Y-93091120D01*
X108509005Y-93081918D01*
X108513626Y-93073273D01*
X108519159Y-93064992D01*
X108525377Y-93057416D01*
X108532416Y-93050377D01*
X108539992Y-93044159D01*
X108548273Y-93038626D01*
X108556918Y-93034005D01*
X108566120Y-93030193D01*
X108575499Y-93027348D01*
X108585265Y-93025406D01*
X108595020Y-93024445D01*
X108600000Y-93024200D01*
X108949200Y-93024200D01*
X108949200Y-92725000D01*
X108950176Y-92715089D01*
X108953067Y-92705560D01*
X108957761Y-92696777D01*
X108964079Y-92689079D01*
X108971777Y-92682761D01*
X108980560Y-92678067D01*
X108990089Y-92675176D01*
X109000000Y-92674200D01*
X110000000Y-92674200D01*
X110009911Y-92675176D01*
X110019440Y-92678067D01*
X110028223Y-92682761D01*
X110035921Y-92689079D01*
X110042239Y-92696777D01*
X110046933Y-92705560D01*
X110049824Y-92715089D01*
X110050800Y-92725000D01*
X110050800Y-93024200D01*
X110500000Y-93024200D01*
X110504980Y-93024445D01*
X110514735Y-93025406D01*
X110524501Y-93027348D01*
X110533880Y-93030193D01*
X110543082Y-93034005D01*
X110551727Y-93038626D01*
X110560008Y-93044159D01*
X110567584Y-93050377D01*
X110574623Y-93057416D01*
X110580841Y-93064992D01*
X110586374Y-93073273D01*
X110590995Y-93081918D01*
X110594807Y-93091120D01*
X110597652Y-93100499D01*
X110599594Y-93110265D01*
X110600555Y-93120020D01*
X110600800Y-93125000D01*
X110600800Y-93825000D01*
X110600555Y-93829980D01*
X110599594Y-93839735D01*
X110597652Y-93849501D01*
X110594807Y-93858880D01*
X110590995Y-93868082D01*
X110586374Y-93876727D01*
X110580841Y-93885008D01*
X110574623Y-93892584D01*
X110567584Y-93899623D01*
X110560008Y-93905841D01*
X110551727Y-93911374D01*
X110543082Y-93915995D01*
X110533880Y-93919807D01*
X110524501Y-93922652D01*
X110514735Y-93924594D01*
X110504980Y-93925555D01*
X110500000Y-93925800D01*
X108600000Y-93925800D01*
X108595020Y-93925555D01*
X108585265Y-93924594D01*
X108575499Y-93922652D01*
X108566120Y-93919807D01*
X108556918Y-93915995D01*
X108548273Y-93911374D01*
X108539992Y-93905841D01*
X108532416Y-93899623D01*
X108525377Y-93892584D01*
X108519159Y-93885008D01*
X108513626Y-93876727D01*
X108509005Y-93868082D01*
X108505193Y-93858880D01*
X108502348Y-93849501D01*
X108500406Y-93839735D01*
X108499445Y-93829980D01*
X108499200Y-93825000D01*
X108499200Y-93125000D01*
X108499445Y-93120020D01*
X108499445Y-93120020D01*
G37*
D22*
X115199480Y-105049480D03*
D19*
G36*
X116508759Y-105579810D02*
G01*
X115729810Y-106358759D01*
X113890201Y-104519150D01*
X114669150Y-103740201D01*
X116508759Y-105579810D01*
X116508759Y-105579810D01*
G37*
D21*
X116861181Y-106711181D03*
D19*
G36*
X116044094Y-107309093D02*
G01*
X116037876Y-107301515D01*
X116032344Y-107293237D01*
X116027723Y-107284593D01*
X116023912Y-107275391D01*
X116021067Y-107266010D01*
X116019124Y-107256242D01*
X116018163Y-107246488D01*
X116018163Y-107236534D01*
X116019124Y-107226780D01*
X116021067Y-107217012D01*
X116023912Y-107207631D01*
X116027723Y-107198429D01*
X116032344Y-107189786D01*
X116037876Y-107181507D01*
X116044094Y-107173929D01*
X116047443Y-107170235D01*
X116294364Y-106923313D01*
X116082798Y-106711747D01*
X116076480Y-106704048D01*
X116071786Y-106695266D01*
X116068895Y-106685736D01*
X116067919Y-106675826D01*
X116068895Y-106665915D01*
X116071786Y-106656385D01*
X116076480Y-106647603D01*
X116082798Y-106639905D01*
X116789905Y-105932798D01*
X116797603Y-105926480D01*
X116806385Y-105921786D01*
X116815915Y-105918895D01*
X116825826Y-105917919D01*
X116835736Y-105918895D01*
X116845266Y-105921786D01*
X116854048Y-105926480D01*
X116861747Y-105932798D01*
X117073313Y-106144364D01*
X117390945Y-105826732D01*
X117394640Y-105823384D01*
X117402217Y-105817165D01*
X117410496Y-105811633D01*
X117419140Y-105807013D01*
X117428342Y-105803201D01*
X117437723Y-105800356D01*
X117447491Y-105798413D01*
X117457244Y-105797453D01*
X117467199Y-105797453D01*
X117476953Y-105798413D01*
X117486721Y-105800356D01*
X117496101Y-105803201D01*
X117505304Y-105807013D01*
X117513947Y-105811633D01*
X117522226Y-105817165D01*
X117529803Y-105823384D01*
X117533498Y-105826732D01*
X118028473Y-106321707D01*
X118031821Y-106325401D01*
X118038039Y-106332979D01*
X118043572Y-106341257D01*
X118048192Y-106349901D01*
X118052003Y-106359103D01*
X118054849Y-106368484D01*
X118056792Y-106378252D01*
X118057752Y-106388006D01*
X118057752Y-106397960D01*
X118056792Y-106407714D01*
X118054849Y-106417482D01*
X118052003Y-106426863D01*
X118048192Y-106436065D01*
X118043572Y-106444709D01*
X118038039Y-106452987D01*
X118031821Y-106460565D01*
X118028473Y-106464259D01*
X116684970Y-107807762D01*
X116681275Y-107811110D01*
X116673698Y-107817329D01*
X116665419Y-107822861D01*
X116656776Y-107827481D01*
X116647573Y-107831293D01*
X116638193Y-107834138D01*
X116628425Y-107836081D01*
X116618671Y-107837041D01*
X116608716Y-107837041D01*
X116598962Y-107836081D01*
X116589194Y-107834138D01*
X116579814Y-107831293D01*
X116570612Y-107827481D01*
X116561968Y-107822861D01*
X116553689Y-107817329D01*
X116546112Y-107811110D01*
X116542417Y-107807762D01*
X116047443Y-107312787D01*
X116044094Y-107309093D01*
X116044094Y-107309093D01*
G37*
D20*
X129075000Y-111350000D03*
D21*
X131425000Y-111350000D03*
D19*
G36*
X131270020Y-112350555D02*
G01*
X131260265Y-112349594D01*
X131250499Y-112347652D01*
X131241120Y-112344807D01*
X131231918Y-112340995D01*
X131223273Y-112336374D01*
X131214992Y-112330841D01*
X131207416Y-112324623D01*
X131200377Y-112317584D01*
X131194159Y-112310008D01*
X131188626Y-112301727D01*
X131184005Y-112293082D01*
X131180193Y-112283880D01*
X131177348Y-112274501D01*
X131175406Y-112264735D01*
X131174445Y-112254980D01*
X131174200Y-112250000D01*
X131174200Y-111900800D01*
X130875000Y-111900800D01*
X130865089Y-111899824D01*
X130855560Y-111896933D01*
X130846777Y-111892239D01*
X130839079Y-111885921D01*
X130832761Y-111878223D01*
X130828067Y-111869440D01*
X130825176Y-111859911D01*
X130824200Y-111850000D01*
X130824200Y-110850000D01*
X130825176Y-110840089D01*
X130828067Y-110830560D01*
X130832761Y-110821777D01*
X130839079Y-110814079D01*
X130846777Y-110807761D01*
X130855560Y-110803067D01*
X130865089Y-110800176D01*
X130875000Y-110799200D01*
X131174200Y-110799200D01*
X131174200Y-110350000D01*
X131174445Y-110345020D01*
X131175406Y-110335265D01*
X131177348Y-110325499D01*
X131180193Y-110316120D01*
X131184005Y-110306918D01*
X131188626Y-110298273D01*
X131194159Y-110289992D01*
X131200377Y-110282416D01*
X131207416Y-110275377D01*
X131214992Y-110269159D01*
X131223273Y-110263626D01*
X131231918Y-110259005D01*
X131241120Y-110255193D01*
X131250499Y-110252348D01*
X131260265Y-110250406D01*
X131270020Y-110249445D01*
X131275000Y-110249200D01*
X131975000Y-110249200D01*
X131979980Y-110249445D01*
X131989735Y-110250406D01*
X131999501Y-110252348D01*
X132008880Y-110255193D01*
X132018082Y-110259005D01*
X132026727Y-110263626D01*
X132035008Y-110269159D01*
X132042584Y-110275377D01*
X132049623Y-110282416D01*
X132055841Y-110289992D01*
X132061374Y-110298273D01*
X132065995Y-110306918D01*
X132069807Y-110316120D01*
X132072652Y-110325499D01*
X132074594Y-110335265D01*
X132075555Y-110345020D01*
X132075800Y-110350000D01*
X132075800Y-112250000D01*
X132075555Y-112254980D01*
X132074594Y-112264735D01*
X132072652Y-112274501D01*
X132069807Y-112283880D01*
X132065995Y-112293082D01*
X132061374Y-112301727D01*
X132055841Y-112310008D01*
X132049623Y-112317584D01*
X132042584Y-112324623D01*
X132035008Y-112330841D01*
X132026727Y-112336374D01*
X132018082Y-112340995D01*
X132008880Y-112344807D01*
X131999501Y-112347652D01*
X131989735Y-112349594D01*
X131979980Y-112350555D01*
X131975000Y-112350800D01*
X131275000Y-112350800D01*
X131270020Y-112350555D01*
X131270020Y-112350555D01*
G37*
D22*
X144263676Y-104586324D03*
D19*
G36*
X144794006Y-103277045D02*
G01*
X145572955Y-104055994D01*
X143733346Y-105895603D01*
X142954397Y-105116654D01*
X144794006Y-103277045D01*
X144794006Y-103277045D01*
G37*
D21*
X145925377Y-102924623D03*
D19*
G36*
X146523289Y-103741710D02*
G01*
X146515711Y-103747928D01*
X146507433Y-103753460D01*
X146498789Y-103758081D01*
X146489587Y-103761892D01*
X146480206Y-103764737D01*
X146470438Y-103766680D01*
X146460684Y-103767641D01*
X146450730Y-103767641D01*
X146440976Y-103766680D01*
X146431208Y-103764737D01*
X146421827Y-103761892D01*
X146412625Y-103758081D01*
X146403982Y-103753460D01*
X146395703Y-103747928D01*
X146388125Y-103741710D01*
X146384431Y-103738361D01*
X146137509Y-103491440D01*
X145925943Y-103703006D01*
X145918244Y-103709324D01*
X145909462Y-103714018D01*
X145899932Y-103716909D01*
X145890022Y-103717885D01*
X145880111Y-103716909D01*
X145870581Y-103714018D01*
X145861799Y-103709324D01*
X145854101Y-103703006D01*
X145146994Y-102995899D01*
X145140676Y-102988201D01*
X145135982Y-102979419D01*
X145133091Y-102969889D01*
X145132115Y-102959978D01*
X145133091Y-102950068D01*
X145135982Y-102940538D01*
X145140676Y-102931756D01*
X145146994Y-102924057D01*
X145358560Y-102712491D01*
X145040928Y-102394859D01*
X145037580Y-102391164D01*
X145031361Y-102383587D01*
X145025829Y-102375308D01*
X145021209Y-102366664D01*
X145017397Y-102357462D01*
X145014552Y-102348081D01*
X145012609Y-102338313D01*
X145011649Y-102328560D01*
X145011649Y-102318605D01*
X145012609Y-102308851D01*
X145014552Y-102299083D01*
X145017397Y-102289703D01*
X145021209Y-102280500D01*
X145025829Y-102271857D01*
X145031361Y-102263578D01*
X145037580Y-102256001D01*
X145040928Y-102252306D01*
X145535903Y-101757331D01*
X145539597Y-101753983D01*
X145547175Y-101747765D01*
X145555453Y-101742232D01*
X145564097Y-101737612D01*
X145573299Y-101733801D01*
X145582680Y-101730955D01*
X145592448Y-101729012D01*
X145602202Y-101728052D01*
X145612156Y-101728052D01*
X145621910Y-101729012D01*
X145631678Y-101730955D01*
X145641059Y-101733801D01*
X145650261Y-101737612D01*
X145658905Y-101742232D01*
X145667183Y-101747765D01*
X145674761Y-101753983D01*
X145678455Y-101757331D01*
X147021958Y-103100834D01*
X147025306Y-103104529D01*
X147031525Y-103112106D01*
X147037057Y-103120385D01*
X147041677Y-103129028D01*
X147045489Y-103138231D01*
X147048334Y-103147611D01*
X147050277Y-103157379D01*
X147051237Y-103167133D01*
X147051237Y-103177088D01*
X147050277Y-103186842D01*
X147048334Y-103196610D01*
X147045489Y-103205990D01*
X147041677Y-103215192D01*
X147037057Y-103223836D01*
X147031525Y-103232115D01*
X147025306Y-103239692D01*
X147021958Y-103243387D01*
X146526983Y-103738361D01*
X146523289Y-103741710D01*
X146523289Y-103741710D01*
G37*
D23*
X149500000Y-91775000D03*
D21*
X149500000Y-89425000D03*
D19*
G36*
X150500555Y-89579980D02*
G01*
X150499594Y-89589735D01*
X150497652Y-89599501D01*
X150494807Y-89608880D01*
X150490995Y-89618082D01*
X150486374Y-89626727D01*
X150480841Y-89635008D01*
X150474623Y-89642584D01*
X150467584Y-89649623D01*
X150460008Y-89655841D01*
X150451727Y-89661374D01*
X150443082Y-89665995D01*
X150433880Y-89669807D01*
X150424501Y-89672652D01*
X150414735Y-89674594D01*
X150404980Y-89675555D01*
X150400000Y-89675800D01*
X150050800Y-89675800D01*
X150050800Y-89975000D01*
X150049824Y-89984911D01*
X150046933Y-89994440D01*
X150042239Y-90003223D01*
X150035921Y-90010921D01*
X150028223Y-90017239D01*
X150019440Y-90021933D01*
X150009911Y-90024824D01*
X150000000Y-90025800D01*
X149000000Y-90025800D01*
X148990089Y-90024824D01*
X148980560Y-90021933D01*
X148971777Y-90017239D01*
X148964079Y-90010921D01*
X148957761Y-90003223D01*
X148953067Y-89994440D01*
X148950176Y-89984911D01*
X148949200Y-89975000D01*
X148949200Y-89675800D01*
X148500000Y-89675800D01*
X148495020Y-89675555D01*
X148485265Y-89674594D01*
X148475499Y-89672652D01*
X148466120Y-89669807D01*
X148456918Y-89665995D01*
X148448273Y-89661374D01*
X148439992Y-89655841D01*
X148432416Y-89649623D01*
X148425377Y-89642584D01*
X148419159Y-89635008D01*
X148413626Y-89626727D01*
X148409005Y-89618082D01*
X148405193Y-89608880D01*
X148402348Y-89599501D01*
X148400406Y-89589735D01*
X148399445Y-89579980D01*
X148399200Y-89575000D01*
X148399200Y-88875000D01*
X148399445Y-88870020D01*
X148400406Y-88860265D01*
X148402348Y-88850499D01*
X148405193Y-88841120D01*
X148409005Y-88831918D01*
X148413626Y-88823273D01*
X148419159Y-88814992D01*
X148425377Y-88807416D01*
X148432416Y-88800377D01*
X148439992Y-88794159D01*
X148448273Y-88788626D01*
X148456918Y-88784005D01*
X148466120Y-88780193D01*
X148475499Y-88777348D01*
X148485265Y-88775406D01*
X148495020Y-88774445D01*
X148500000Y-88774200D01*
X150400000Y-88774200D01*
X150404980Y-88774445D01*
X150414735Y-88775406D01*
X150424501Y-88777348D01*
X150433880Y-88780193D01*
X150443082Y-88784005D01*
X150451727Y-88788626D01*
X150460008Y-88794159D01*
X150467584Y-88800377D01*
X150474623Y-88807416D01*
X150480841Y-88814992D01*
X150486374Y-88823273D01*
X150490995Y-88831918D01*
X150494807Y-88841120D01*
X150497652Y-88850499D01*
X150499594Y-88860265D01*
X150500555Y-88870020D01*
X150500800Y-88875000D01*
X150500800Y-89575000D01*
X150500555Y-89579980D01*
X150500555Y-89579980D01*
G37*
D22*
X142736324Y-76586324D03*
D19*
G36*
X141427045Y-76055994D02*
G01*
X142205994Y-75277045D01*
X144045603Y-77116654D01*
X143266654Y-77895603D01*
X141427045Y-76055994D01*
X141427045Y-76055994D01*
G37*
D21*
X141074623Y-74924623D03*
D19*
G36*
X141891710Y-74326711D02*
G01*
X141897928Y-74334289D01*
X141903460Y-74342567D01*
X141908081Y-74351211D01*
X141911892Y-74360413D01*
X141914737Y-74369794D01*
X141916680Y-74379562D01*
X141917641Y-74389316D01*
X141917641Y-74399270D01*
X141916680Y-74409024D01*
X141914737Y-74418792D01*
X141911892Y-74428173D01*
X141908081Y-74437375D01*
X141903460Y-74446018D01*
X141897928Y-74454297D01*
X141891710Y-74461875D01*
X141888361Y-74465569D01*
X141641440Y-74712491D01*
X141853006Y-74924057D01*
X141859324Y-74931756D01*
X141864018Y-74940538D01*
X141866909Y-74950068D01*
X141867885Y-74959978D01*
X141866909Y-74969889D01*
X141864018Y-74979419D01*
X141859324Y-74988201D01*
X141853006Y-74995899D01*
X141145899Y-75703006D01*
X141138201Y-75709324D01*
X141129419Y-75714018D01*
X141119889Y-75716909D01*
X141109978Y-75717885D01*
X141100068Y-75716909D01*
X141090538Y-75714018D01*
X141081756Y-75709324D01*
X141074057Y-75703006D01*
X140862491Y-75491440D01*
X140544859Y-75809072D01*
X140541164Y-75812420D01*
X140533587Y-75818639D01*
X140525308Y-75824171D01*
X140516664Y-75828791D01*
X140507462Y-75832603D01*
X140498081Y-75835448D01*
X140488313Y-75837391D01*
X140478560Y-75838351D01*
X140468605Y-75838351D01*
X140458851Y-75837391D01*
X140449083Y-75835448D01*
X140439703Y-75832603D01*
X140430500Y-75828791D01*
X140421857Y-75824171D01*
X140413578Y-75818639D01*
X140406001Y-75812420D01*
X140402306Y-75809072D01*
X139907331Y-75314097D01*
X139903983Y-75310403D01*
X139897765Y-75302825D01*
X139892232Y-75294547D01*
X139887612Y-75285903D01*
X139883801Y-75276701D01*
X139880955Y-75267320D01*
X139879012Y-75257552D01*
X139878052Y-75247798D01*
X139878052Y-75237844D01*
X139879012Y-75228090D01*
X139880955Y-75218322D01*
X139883801Y-75208941D01*
X139887612Y-75199739D01*
X139892232Y-75191095D01*
X139897765Y-75182817D01*
X139903983Y-75175239D01*
X139907331Y-75171545D01*
X141250834Y-73828042D01*
X141254529Y-73824694D01*
X141262106Y-73818475D01*
X141270385Y-73812943D01*
X141279028Y-73808323D01*
X141288231Y-73804511D01*
X141297611Y-73801666D01*
X141307379Y-73799723D01*
X141317133Y-73798763D01*
X141327088Y-73798763D01*
X141336842Y-73799723D01*
X141346610Y-73801666D01*
X141355990Y-73804511D01*
X141365192Y-73808323D01*
X141373836Y-73812943D01*
X141382115Y-73818475D01*
X141389692Y-73824694D01*
X141393387Y-73828042D01*
X141888361Y-74323017D01*
X141891710Y-74326711D01*
X141891710Y-74326711D01*
G37*
M02*
