M48
; DRILL file {KiCad (5.1.0)-1} date 2019-04-30 9:22:27 PM
; FORMAT={-:-/ absolute / inch / decimal}
; #@! TF.CreationDate,2019-04-30T21:22:27-04:00
; #@! TF.GenerationSoftware,Kicad,Pcbnew,(5.1.0)-1
FMAT,2
INCH
T1C0.0100
T2C0.1181
%
G90
G05
T1
X4.3307Y-3.4055
X4.4193Y-4.0157
X4.6955Y-2.9337
X4.8504Y-2.3701
X4.8504Y-2.4094
X4.8504Y-2.4488
X4.8858Y-2.3701
X4.8858Y-2.4094
X4.8858Y-2.4488
X4.8917Y-4.3701
X4.9213Y-2.3701
X4.9213Y-2.4094
X4.9213Y-2.4488
X5.2483Y-2.8127
X5.5314Y-4.2619
X5.7579Y-3.1594
X5.8844Y-3.7303
T2
X4.8051Y-2.0217
X5.3917Y-2.0217
X5.3937Y-2.7165
X4.8051Y-2.7165
T0
M30
