G04 #@! TF.GenerationSoftware,KiCad,Pcbnew,(5.1.0)-1*
G04 #@! TF.CreationDate,2019-04-30T21:22:08-04:00*
G04 #@! TF.ProjectId,MIcroscope_Light,4d496372-6f73-4636-9f70-655f4c696768,rev?*
G04 #@! TF.SameCoordinates,Original*
G04 #@! TF.FileFunction,Soldermask,Bot*
G04 #@! TF.FilePolarity,Negative*
%FSLAX46Y46*%
G04 Gerber Fmt 4.6, Leading zero omitted, Abs format (unit mm)*
G04 Created by KiCad (PCBNEW (5.1.0)-1) date 2019-04-30 21:22:08*
%MOMM*%
%LPD*%
G04 APERTURE LIST*
%ADD10C,0.050000*%
%ADD11C,0.100000*%
G04 APERTURE END LIST*
D10*
X147075000Y-91500000D02*
G75*
G03X147075000Y-91500000I-17575000J0D01*
G01*
X141450000Y-72950000D02*
G75*
G02X117550000Y-72950000I-11950000J-18550000D01*
G01*
X141500000Y-46850000D02*
X141450000Y-72950000D01*
X117550000Y-46850000D02*
X141500000Y-46850000D01*
X117550000Y-72950000D02*
X117550000Y-46850000D01*
D11*
G36*
X131981281Y-110249078D02*
G01*
X131987295Y-110249671D01*
X132002031Y-110252602D01*
X132006635Y-110253998D01*
X132020523Y-110259751D01*
X132024760Y-110262015D01*
X132037243Y-110270358D01*
X132040971Y-110273417D01*
X132051583Y-110284029D01*
X132054642Y-110287757D01*
X132062985Y-110300240D01*
X132065249Y-110304477D01*
X132071002Y-110318365D01*
X132072398Y-110322969D01*
X132075329Y-110337705D01*
X132075922Y-110343719D01*
X132076292Y-110351253D01*
X132076292Y-112248747D01*
X132075922Y-112256281D01*
X132075329Y-112262295D01*
X132072398Y-112277031D01*
X132071002Y-112281635D01*
X132065249Y-112295523D01*
X132062985Y-112299760D01*
X132054642Y-112312243D01*
X132051583Y-112315971D01*
X132040971Y-112326583D01*
X132037243Y-112329642D01*
X132024760Y-112337985D01*
X132020523Y-112340249D01*
X132006635Y-112346002D01*
X132002031Y-112347398D01*
X131987295Y-112350329D01*
X131981281Y-112350922D01*
X131973747Y-112351292D01*
X131276253Y-112351292D01*
X131268719Y-112350922D01*
X131262705Y-112350329D01*
X131247969Y-112347398D01*
X131243365Y-112346002D01*
X131229477Y-112340249D01*
X131225240Y-112337985D01*
X131212757Y-112329642D01*
X131209029Y-112326583D01*
X131198417Y-112315971D01*
X131195358Y-112312243D01*
X131187015Y-112299760D01*
X131184751Y-112295523D01*
X131178998Y-112281635D01*
X131177602Y-112277031D01*
X131174671Y-112262295D01*
X131174078Y-112256281D01*
X131173708Y-112248747D01*
X131173708Y-111952091D01*
X131172732Y-111942181D01*
X131169841Y-111932651D01*
X131165147Y-111923869D01*
X131158829Y-111916171D01*
X131151131Y-111909853D01*
X131142349Y-111905159D01*
X131132819Y-111902268D01*
X131122909Y-111901292D01*
X130877493Y-111901292D01*
X130865043Y-111900066D01*
X130855464Y-111897160D01*
X130846641Y-111892444D01*
X130838905Y-111886095D01*
X130832556Y-111878359D01*
X130827840Y-111869536D01*
X130824934Y-111859957D01*
X130823708Y-111847507D01*
X130823708Y-110852493D01*
X130824934Y-110840043D01*
X130827840Y-110830464D01*
X130832556Y-110821641D01*
X130838905Y-110813905D01*
X130846641Y-110807556D01*
X130855464Y-110802840D01*
X130865043Y-110799934D01*
X130877493Y-110798708D01*
X131122909Y-110798708D01*
X131132819Y-110797732D01*
X131142349Y-110794841D01*
X131151131Y-110790147D01*
X131158829Y-110783829D01*
X131165147Y-110776131D01*
X131169841Y-110767349D01*
X131172732Y-110757819D01*
X131173708Y-110747909D01*
X131173708Y-110351253D01*
X131174078Y-110343719D01*
X131174671Y-110337705D01*
X131177602Y-110322969D01*
X131178998Y-110318365D01*
X131184751Y-110304477D01*
X131187015Y-110300240D01*
X131195358Y-110287757D01*
X131198417Y-110284029D01*
X131209029Y-110273417D01*
X131212757Y-110270358D01*
X131225240Y-110262015D01*
X131229477Y-110259751D01*
X131243365Y-110253998D01*
X131247969Y-110252602D01*
X131262705Y-110249671D01*
X131268719Y-110249078D01*
X131276253Y-110248708D01*
X131973747Y-110248708D01*
X131981281Y-110249078D01*
X131981281Y-110249078D01*
G37*
G36*
X130375800Y-111900800D02*
G01*
X127774200Y-111900800D01*
X127774200Y-110799200D01*
X130375800Y-110799200D01*
X130375800Y-111900800D01*
X130375800Y-111900800D01*
G37*
G36*
X124307182Y-109788659D02*
G01*
X123579471Y-111545509D01*
X122335374Y-111030187D01*
X123063085Y-109273337D01*
X124307182Y-109788659D01*
X124307182Y-109788659D01*
G37*
G36*
X137593348Y-110639610D02*
G01*
X136349251Y-111154932D01*
X135621540Y-109398082D01*
X136865637Y-108882760D01*
X137593348Y-110639610D01*
X137593348Y-110639610D01*
G37*
G36*
X121364626Y-108569813D02*
G01*
X120636915Y-110326663D01*
X119392818Y-109811341D01*
X120120529Y-108054491D01*
X121364626Y-108569813D01*
X121364626Y-108569813D01*
G37*
G36*
X140535904Y-109420764D02*
G01*
X139291807Y-109936086D01*
X138564096Y-108179236D01*
X139808193Y-107663914D01*
X140535904Y-109420764D01*
X140535904Y-109420764D01*
G37*
G36*
X117474523Y-105797680D02*
G01*
X117489251Y-105800609D01*
X117493849Y-105802004D01*
X117496161Y-105802962D01*
X117496172Y-105802965D01*
X117505422Y-105806797D01*
X117505428Y-105806800D01*
X117507745Y-105807760D01*
X117511975Y-105810021D01*
X117524468Y-105818369D01*
X117529146Y-105822208D01*
X117534742Y-105827280D01*
X118027925Y-106320463D01*
X118032997Y-106326059D01*
X118036840Y-106330741D01*
X118045185Y-106343232D01*
X118047447Y-106347462D01*
X118053197Y-106361345D01*
X118054593Y-106365948D01*
X118055081Y-106368403D01*
X118055083Y-106368408D01*
X118057037Y-106378229D01*
X118057526Y-106380689D01*
X118057997Y-106385480D01*
X118057997Y-106400486D01*
X118057526Y-106405277D01*
X118057037Y-106407732D01*
X118057037Y-106407737D01*
X118055083Y-106417558D01*
X118055081Y-106417563D01*
X118054593Y-106420018D01*
X118053197Y-106424621D01*
X118047447Y-106438504D01*
X118045185Y-106442734D01*
X118036840Y-106455225D01*
X118032997Y-106459907D01*
X118027925Y-106465503D01*
X116686214Y-107807214D01*
X116680618Y-107812286D01*
X116675940Y-107816125D01*
X116663447Y-107824473D01*
X116659214Y-107826736D01*
X116656896Y-107827696D01*
X116656894Y-107827697D01*
X116647643Y-107831529D01*
X116647639Y-107831530D01*
X116645329Y-107832487D01*
X116640721Y-107833885D01*
X116625987Y-107836815D01*
X116621198Y-107837286D01*
X116606191Y-107837286D01*
X116601400Y-107836815D01*
X116598942Y-107836326D01*
X116598940Y-107836326D01*
X116589125Y-107834374D01*
X116586666Y-107833885D01*
X116582062Y-107832489D01*
X116579747Y-107831530D01*
X116579744Y-107831529D01*
X116570491Y-107827696D01*
X116570486Y-107827693D01*
X116568168Y-107826733D01*
X116563937Y-107824471D01*
X116560994Y-107822505D01*
X116553536Y-107817521D01*
X116553534Y-107817519D01*
X116551449Y-107816126D01*
X116546768Y-107812286D01*
X116541181Y-107807222D01*
X116047989Y-107314029D01*
X116042917Y-107308434D01*
X116039083Y-107303762D01*
X116030728Y-107291259D01*
X116028465Y-107287026D01*
X116022717Y-107273146D01*
X116021321Y-107268543D01*
X116018390Y-107253809D01*
X116017919Y-107249027D01*
X116017919Y-107233995D01*
X116018390Y-107229213D01*
X116021321Y-107214479D01*
X116022717Y-107209876D01*
X116028465Y-107195996D01*
X116030728Y-107191763D01*
X116039083Y-107179260D01*
X116042917Y-107174588D01*
X116047989Y-107168993D01*
X116257748Y-106959233D01*
X116264066Y-106951535D01*
X116268760Y-106942753D01*
X116271651Y-106933223D01*
X116272627Y-106923313D01*
X116271651Y-106913402D01*
X116268760Y-106903873D01*
X116264066Y-106895090D01*
X116257748Y-106887393D01*
X116084217Y-106713862D01*
X116076275Y-106704185D01*
X116071559Y-106695362D01*
X116068653Y-106685783D01*
X116067673Y-106675826D01*
X116068653Y-106665869D01*
X116071559Y-106656290D01*
X116076275Y-106647467D01*
X116084217Y-106637790D01*
X116787790Y-105934217D01*
X116797467Y-105926275D01*
X116806290Y-105921559D01*
X116815869Y-105918653D01*
X116825826Y-105917673D01*
X116835783Y-105918653D01*
X116845362Y-105921559D01*
X116854185Y-105926275D01*
X116863862Y-105934217D01*
X117037393Y-106107748D01*
X117045091Y-106114066D01*
X117053873Y-106118760D01*
X117063403Y-106121651D01*
X117073313Y-106122627D01*
X117083223Y-106121651D01*
X117092753Y-106118760D01*
X117101535Y-106114066D01*
X117109233Y-106107748D01*
X117389709Y-105827272D01*
X117395296Y-105822208D01*
X117399977Y-105818368D01*
X117402062Y-105816975D01*
X117402064Y-105816973D01*
X117410376Y-105811419D01*
X117412465Y-105810023D01*
X117416696Y-105807761D01*
X117419014Y-105806801D01*
X117419019Y-105806798D01*
X117428272Y-105802965D01*
X117428275Y-105802964D01*
X117430590Y-105802005D01*
X117435194Y-105800609D01*
X117437653Y-105800120D01*
X117447468Y-105798168D01*
X117447470Y-105798168D01*
X117449928Y-105797679D01*
X117454719Y-105797208D01*
X117469725Y-105797208D01*
X117474523Y-105797680D01*
X117474523Y-105797680D01*
G37*
G36*
X116508760Y-105579810D02*
G01*
X115729810Y-106358760D01*
X113890200Y-104519150D01*
X114669150Y-103740200D01*
X116508760Y-105579810D01*
X116508760Y-105579810D01*
G37*
G36*
X145572956Y-104055994D02*
G01*
X143733346Y-105895604D01*
X142954396Y-105116654D01*
X144794006Y-103277044D01*
X145572956Y-104055994D01*
X145572956Y-104055994D01*
G37*
G36*
X145619473Y-101728278D02*
G01*
X145621928Y-101728767D01*
X145621933Y-101728767D01*
X145631754Y-101730721D01*
X145631759Y-101730723D01*
X145634214Y-101731211D01*
X145638817Y-101732607D01*
X145652700Y-101738357D01*
X145656930Y-101740619D01*
X145669421Y-101748964D01*
X145674103Y-101752807D01*
X145679699Y-101757879D01*
X147021410Y-103099590D01*
X147026482Y-103105186D01*
X147030321Y-103109864D01*
X147038669Y-103122357D01*
X147040932Y-103126590D01*
X147046683Y-103140475D01*
X147048081Y-103145083D01*
X147051011Y-103159817D01*
X147051482Y-103164606D01*
X147051482Y-103179613D01*
X147051011Y-103184404D01*
X147048081Y-103199138D01*
X147046685Y-103203742D01*
X147045726Y-103206057D01*
X147045725Y-103206060D01*
X147041892Y-103215313D01*
X147041889Y-103215318D01*
X147040929Y-103217636D01*
X147038667Y-103221867D01*
X147030322Y-103234355D01*
X147026482Y-103239036D01*
X147021418Y-103244623D01*
X146528225Y-103737815D01*
X146522630Y-103742887D01*
X146517958Y-103746721D01*
X146505455Y-103755076D01*
X146501222Y-103757339D01*
X146487342Y-103763087D01*
X146482739Y-103764483D01*
X146480279Y-103764972D01*
X146480277Y-103764973D01*
X146476808Y-103765663D01*
X146468005Y-103767414D01*
X146463223Y-103767885D01*
X146448191Y-103767885D01*
X146443409Y-103767414D01*
X146434606Y-103765663D01*
X146431137Y-103764973D01*
X146431135Y-103764972D01*
X146428675Y-103764483D01*
X146424072Y-103763087D01*
X146410192Y-103757339D01*
X146405959Y-103755076D01*
X146393456Y-103746721D01*
X146388784Y-103742887D01*
X146383189Y-103737815D01*
X146173429Y-103528056D01*
X146165731Y-103521738D01*
X146156949Y-103517044D01*
X146147419Y-103514153D01*
X146137509Y-103513177D01*
X146127598Y-103514153D01*
X146118069Y-103517044D01*
X146109286Y-103521738D01*
X146101589Y-103528056D01*
X145928058Y-103701587D01*
X145918381Y-103709529D01*
X145909558Y-103714245D01*
X145899979Y-103717151D01*
X145890022Y-103718131D01*
X145880065Y-103717151D01*
X145870486Y-103714245D01*
X145861663Y-103709529D01*
X145851986Y-103701587D01*
X145148413Y-102998014D01*
X145140471Y-102988337D01*
X145135755Y-102979514D01*
X145132849Y-102969935D01*
X145131869Y-102959978D01*
X145132849Y-102950021D01*
X145135755Y-102940442D01*
X145140471Y-102931619D01*
X145148413Y-102921942D01*
X145321944Y-102748411D01*
X145328262Y-102740713D01*
X145332956Y-102731931D01*
X145335847Y-102722401D01*
X145336823Y-102712491D01*
X145335847Y-102702581D01*
X145332956Y-102693051D01*
X145328262Y-102684269D01*
X145321944Y-102676571D01*
X145041468Y-102396095D01*
X145036404Y-102390508D01*
X145032564Y-102385827D01*
X145024219Y-102373339D01*
X145021957Y-102369108D01*
X145020997Y-102366790D01*
X145020994Y-102366785D01*
X145017161Y-102357532D01*
X145017160Y-102357529D01*
X145016201Y-102355214D01*
X145014805Y-102350610D01*
X145011875Y-102335876D01*
X145011404Y-102331085D01*
X145011404Y-102316079D01*
X145011876Y-102311281D01*
X145014805Y-102296553D01*
X145016200Y-102291955D01*
X145017158Y-102289643D01*
X145017161Y-102289632D01*
X145020993Y-102280382D01*
X145020996Y-102280376D01*
X145021956Y-102278059D01*
X145024217Y-102273829D01*
X145032565Y-102261336D01*
X145036404Y-102256658D01*
X145041476Y-102251062D01*
X145534659Y-101757879D01*
X145540255Y-101752807D01*
X145544937Y-101748964D01*
X145557428Y-101740619D01*
X145561658Y-101738357D01*
X145575541Y-101732607D01*
X145580144Y-101731211D01*
X145582599Y-101730723D01*
X145582604Y-101730721D01*
X145592425Y-101728767D01*
X145592430Y-101728767D01*
X145594885Y-101728278D01*
X145599676Y-101727807D01*
X145614682Y-101727807D01*
X145619473Y-101728278D01*
X145619473Y-101728278D01*
G37*
G36*
X113086086Y-101308193D02*
G01*
X111329236Y-102035904D01*
X110813914Y-100791807D01*
X112570764Y-100064096D01*
X113086086Y-101308193D01*
X113086086Y-101308193D01*
G37*
G36*
X149026663Y-98563085D02*
G01*
X148511341Y-99807182D01*
X146754491Y-99079471D01*
X147269813Y-97835374D01*
X149026663Y-98563085D01*
X149026663Y-98563085D01*
G37*
G36*
X111867240Y-98365637D02*
G01*
X110110390Y-99093348D01*
X109595068Y-97849251D01*
X111351918Y-97121540D01*
X111867240Y-98365637D01*
X111867240Y-98365637D01*
G37*
G36*
X150245509Y-95620529D02*
G01*
X149730187Y-96864626D01*
X147973337Y-96136915D01*
X148488659Y-94892818D01*
X150245509Y-95620529D01*
X150245509Y-95620529D01*
G37*
G36*
X110009957Y-92674934D02*
G01*
X110019536Y-92677840D01*
X110028359Y-92682556D01*
X110036095Y-92688905D01*
X110042444Y-92696641D01*
X110047160Y-92705464D01*
X110050066Y-92715043D01*
X110051292Y-92727493D01*
X110051292Y-92972909D01*
X110052268Y-92982819D01*
X110055159Y-92992349D01*
X110059853Y-93001131D01*
X110066171Y-93008829D01*
X110073869Y-93015147D01*
X110082651Y-93019841D01*
X110092181Y-93022732D01*
X110102091Y-93023708D01*
X110498747Y-93023708D01*
X110506281Y-93024078D01*
X110512295Y-93024671D01*
X110527031Y-93027602D01*
X110531635Y-93028998D01*
X110545523Y-93034751D01*
X110549760Y-93037015D01*
X110562243Y-93045358D01*
X110565971Y-93048417D01*
X110576583Y-93059029D01*
X110579642Y-93062757D01*
X110587985Y-93075240D01*
X110590249Y-93079477D01*
X110596002Y-93093365D01*
X110597398Y-93097969D01*
X110600329Y-93112705D01*
X110600922Y-93118719D01*
X110601292Y-93126253D01*
X110601292Y-93823747D01*
X110600922Y-93831281D01*
X110600329Y-93837295D01*
X110597398Y-93852031D01*
X110596002Y-93856635D01*
X110590249Y-93870523D01*
X110587985Y-93874760D01*
X110579642Y-93887243D01*
X110576583Y-93890971D01*
X110565971Y-93901583D01*
X110562243Y-93904642D01*
X110549760Y-93912985D01*
X110545523Y-93915249D01*
X110531635Y-93921002D01*
X110527031Y-93922398D01*
X110512295Y-93925329D01*
X110506281Y-93925922D01*
X110498747Y-93926292D01*
X108601253Y-93926292D01*
X108593719Y-93925922D01*
X108587705Y-93925329D01*
X108572969Y-93922398D01*
X108568365Y-93921002D01*
X108554477Y-93915249D01*
X108550240Y-93912985D01*
X108537757Y-93904642D01*
X108534029Y-93901583D01*
X108523417Y-93890971D01*
X108520358Y-93887243D01*
X108512015Y-93874760D01*
X108509751Y-93870523D01*
X108503998Y-93856635D01*
X108502602Y-93852031D01*
X108499671Y-93837295D01*
X108499078Y-93831281D01*
X108498708Y-93823747D01*
X108498708Y-93126253D01*
X108499078Y-93118719D01*
X108499671Y-93112705D01*
X108502602Y-93097969D01*
X108503998Y-93093365D01*
X108509751Y-93079477D01*
X108512015Y-93075240D01*
X108520358Y-93062757D01*
X108523417Y-93059029D01*
X108534029Y-93048417D01*
X108537757Y-93045358D01*
X108550240Y-93037015D01*
X108554477Y-93034751D01*
X108568365Y-93028998D01*
X108572969Y-93027602D01*
X108587705Y-93024671D01*
X108593719Y-93024078D01*
X108601253Y-93023708D01*
X108897909Y-93023708D01*
X108907819Y-93022732D01*
X108917349Y-93019841D01*
X108926131Y-93015147D01*
X108933829Y-93008829D01*
X108940147Y-93001131D01*
X108944841Y-92992349D01*
X108947732Y-92982819D01*
X108948708Y-92972909D01*
X108948708Y-92727493D01*
X108949934Y-92715043D01*
X108952840Y-92705464D01*
X108957556Y-92696641D01*
X108963905Y-92688905D01*
X108971641Y-92682556D01*
X108980464Y-92677840D01*
X108990043Y-92674934D01*
X109002493Y-92673708D01*
X109997507Y-92673708D01*
X110009957Y-92674934D01*
X110009957Y-92674934D01*
G37*
G36*
X150050800Y-93075800D02*
G01*
X148949200Y-93075800D01*
X148949200Y-90474200D01*
X150050800Y-90474200D01*
X150050800Y-93075800D01*
X150050800Y-93075800D01*
G37*
G36*
X110050800Y-92225800D02*
G01*
X108949200Y-92225800D01*
X108949200Y-89624200D01*
X110050800Y-89624200D01*
X110050800Y-92225800D01*
X110050800Y-92225800D01*
G37*
G36*
X150406281Y-88774078D02*
G01*
X150412295Y-88774671D01*
X150427031Y-88777602D01*
X150431635Y-88778998D01*
X150445523Y-88784751D01*
X150449760Y-88787015D01*
X150462243Y-88795358D01*
X150465971Y-88798417D01*
X150476583Y-88809029D01*
X150479642Y-88812757D01*
X150487985Y-88825240D01*
X150490249Y-88829477D01*
X150496002Y-88843365D01*
X150497398Y-88847969D01*
X150500329Y-88862705D01*
X150500922Y-88868719D01*
X150501292Y-88876253D01*
X150501292Y-89573747D01*
X150500922Y-89581281D01*
X150500329Y-89587295D01*
X150497398Y-89602031D01*
X150496002Y-89606635D01*
X150490249Y-89620523D01*
X150487985Y-89624760D01*
X150479642Y-89637243D01*
X150476583Y-89640971D01*
X150465971Y-89651583D01*
X150462243Y-89654642D01*
X150449760Y-89662985D01*
X150445523Y-89665249D01*
X150431635Y-89671002D01*
X150427031Y-89672398D01*
X150412295Y-89675329D01*
X150406281Y-89675922D01*
X150398747Y-89676292D01*
X150102091Y-89676292D01*
X150092181Y-89677268D01*
X150082651Y-89680159D01*
X150073869Y-89684853D01*
X150066171Y-89691171D01*
X150059853Y-89698869D01*
X150055159Y-89707651D01*
X150052268Y-89717181D01*
X150051292Y-89727091D01*
X150051292Y-89972507D01*
X150050066Y-89984957D01*
X150047160Y-89994536D01*
X150042444Y-90003359D01*
X150036095Y-90011095D01*
X150028359Y-90017444D01*
X150019536Y-90022160D01*
X150009957Y-90025066D01*
X149997507Y-90026292D01*
X149002493Y-90026292D01*
X148990043Y-90025066D01*
X148980464Y-90022160D01*
X148971641Y-90017444D01*
X148963905Y-90011095D01*
X148957556Y-90003359D01*
X148952840Y-89994536D01*
X148949934Y-89984957D01*
X148948708Y-89972507D01*
X148948708Y-89727091D01*
X148947732Y-89717181D01*
X148944841Y-89707651D01*
X148940147Y-89698869D01*
X148933829Y-89691171D01*
X148926131Y-89684853D01*
X148917349Y-89680159D01*
X148907819Y-89677268D01*
X148897909Y-89676292D01*
X148501253Y-89676292D01*
X148493719Y-89675922D01*
X148487705Y-89675329D01*
X148472969Y-89672398D01*
X148468365Y-89671002D01*
X148454477Y-89665249D01*
X148450240Y-89662985D01*
X148437757Y-89654642D01*
X148434029Y-89651583D01*
X148423417Y-89640971D01*
X148420358Y-89637243D01*
X148412015Y-89624760D01*
X148409751Y-89620523D01*
X148403998Y-89606635D01*
X148402602Y-89602031D01*
X148399671Y-89587295D01*
X148399078Y-89581281D01*
X148398708Y-89573747D01*
X148398708Y-88876253D01*
X148399078Y-88868719D01*
X148399671Y-88862705D01*
X148402602Y-88847969D01*
X148403998Y-88843365D01*
X148409751Y-88829477D01*
X148412015Y-88825240D01*
X148420358Y-88812757D01*
X148423417Y-88809029D01*
X148434029Y-88798417D01*
X148437757Y-88795358D01*
X148450240Y-88787015D01*
X148454477Y-88784751D01*
X148468365Y-88778998D01*
X148472969Y-88777602D01*
X148487705Y-88774671D01*
X148493719Y-88774078D01*
X148501253Y-88773708D01*
X150398747Y-88773708D01*
X150406281Y-88774078D01*
X150406281Y-88774078D01*
G37*
G36*
X111736086Y-85341807D02*
G01*
X111220764Y-86585904D01*
X109463914Y-85858193D01*
X109979236Y-84614096D01*
X111736086Y-85341807D01*
X111736086Y-85341807D01*
G37*
G36*
X149236086Y-84508193D02*
G01*
X147479236Y-85235904D01*
X146963914Y-83991807D01*
X148720764Y-83264096D01*
X149236086Y-84508193D01*
X149236086Y-84508193D01*
G37*
G36*
X112954932Y-82399251D02*
G01*
X112439610Y-83643348D01*
X110682760Y-82915637D01*
X111198082Y-81671540D01*
X112954932Y-82399251D01*
X112954932Y-82399251D01*
G37*
G36*
X148017240Y-81565637D02*
G01*
X146260390Y-82293348D01*
X145745068Y-81049251D01*
X147501918Y-80321540D01*
X148017240Y-81565637D01*
X148017240Y-81565637D01*
G37*
G36*
X113620787Y-77868390D02*
G01*
X113629590Y-77870141D01*
X113633059Y-77870831D01*
X113633061Y-77870832D01*
X113635521Y-77871321D01*
X113640124Y-77872717D01*
X113654004Y-77878465D01*
X113658237Y-77880728D01*
X113670740Y-77889083D01*
X113675412Y-77892917D01*
X113681007Y-77897989D01*
X113890767Y-78107748D01*
X113898465Y-78114066D01*
X113907247Y-78118760D01*
X113916777Y-78121651D01*
X113926687Y-78122627D01*
X113936598Y-78121651D01*
X113946127Y-78118760D01*
X113954910Y-78114066D01*
X113962607Y-78107748D01*
X114136138Y-77934217D01*
X114145815Y-77926275D01*
X114154638Y-77921559D01*
X114164217Y-77918653D01*
X114174174Y-77917673D01*
X114184131Y-77918653D01*
X114193710Y-77921559D01*
X114202533Y-77926275D01*
X114212210Y-77934217D01*
X114915783Y-78637790D01*
X114923725Y-78647467D01*
X114928441Y-78656290D01*
X114931347Y-78665869D01*
X114932327Y-78675826D01*
X114931347Y-78685783D01*
X114928441Y-78695362D01*
X114923725Y-78704185D01*
X114915783Y-78713862D01*
X114742252Y-78887393D01*
X114735934Y-78895091D01*
X114731240Y-78903873D01*
X114728349Y-78913403D01*
X114727373Y-78923313D01*
X114728349Y-78933223D01*
X114731240Y-78942753D01*
X114735934Y-78951535D01*
X114742252Y-78959233D01*
X115022728Y-79239709D01*
X115027792Y-79245296D01*
X115031632Y-79249977D01*
X115039977Y-79262465D01*
X115042239Y-79266696D01*
X115043199Y-79269014D01*
X115043202Y-79269019D01*
X115047035Y-79278272D01*
X115047995Y-79280590D01*
X115049391Y-79285194D01*
X115052321Y-79299928D01*
X115052792Y-79304719D01*
X115052792Y-79319725D01*
X115052320Y-79324523D01*
X115049391Y-79339251D01*
X115047996Y-79343849D01*
X115047038Y-79346161D01*
X115047035Y-79346172D01*
X115043203Y-79355422D01*
X115043200Y-79355428D01*
X115042240Y-79357745D01*
X115039979Y-79361975D01*
X115031631Y-79374468D01*
X115027792Y-79379146D01*
X115022720Y-79384742D01*
X114529537Y-79877925D01*
X114523941Y-79882997D01*
X114519259Y-79886840D01*
X114506768Y-79895185D01*
X114502538Y-79897447D01*
X114488655Y-79903197D01*
X114484052Y-79904593D01*
X114481597Y-79905081D01*
X114481592Y-79905083D01*
X114471771Y-79907037D01*
X114471766Y-79907037D01*
X114469311Y-79907526D01*
X114464520Y-79907997D01*
X114449514Y-79907997D01*
X114444723Y-79907526D01*
X114442268Y-79907037D01*
X114442263Y-79907037D01*
X114432442Y-79905083D01*
X114432437Y-79905081D01*
X114429982Y-79904593D01*
X114425379Y-79903197D01*
X114411496Y-79897447D01*
X114407266Y-79895185D01*
X114394775Y-79886840D01*
X114390093Y-79882997D01*
X114384497Y-79877925D01*
X113042786Y-78536214D01*
X113037714Y-78530618D01*
X113033875Y-78525940D01*
X113025527Y-78513447D01*
X113023264Y-78509214D01*
X113017513Y-78495329D01*
X113016115Y-78490721D01*
X113013185Y-78475987D01*
X113012714Y-78471198D01*
X113012714Y-78456191D01*
X113013185Y-78451400D01*
X113016115Y-78436666D01*
X113017511Y-78432062D01*
X113018471Y-78429744D01*
X113022304Y-78420491D01*
X113022307Y-78420486D01*
X113023267Y-78418168D01*
X113025529Y-78413937D01*
X113033874Y-78401449D01*
X113037714Y-78396768D01*
X113042778Y-78391181D01*
X113535971Y-77897989D01*
X113541566Y-77892917D01*
X113546238Y-77889083D01*
X113558741Y-77880728D01*
X113562974Y-77878465D01*
X113576854Y-77872717D01*
X113581457Y-77871321D01*
X113583917Y-77870832D01*
X113583919Y-77870831D01*
X113587388Y-77870141D01*
X113596191Y-77868390D01*
X113600973Y-77867919D01*
X113616005Y-77867919D01*
X113620787Y-77868390D01*
X113620787Y-77868390D01*
G37*
G36*
X117109800Y-76519150D02*
G01*
X115270190Y-78358760D01*
X114491240Y-77579810D01*
X116330850Y-75740200D01*
X117109800Y-76519150D01*
X117109800Y-76519150D01*
G37*
G36*
X144045604Y-77116654D02*
G01*
X143266654Y-77895604D01*
X141427044Y-76055994D01*
X142205994Y-75277044D01*
X144045604Y-77116654D01*
X144045604Y-77116654D01*
G37*
G36*
X141334404Y-73798989D02*
G01*
X141336862Y-73799478D01*
X141336864Y-73799478D01*
X141346679Y-73801430D01*
X141349138Y-73801919D01*
X141353742Y-73803315D01*
X141356057Y-73804274D01*
X141356060Y-73804275D01*
X141365313Y-73808108D01*
X141365318Y-73808111D01*
X141367636Y-73809071D01*
X141371867Y-73811333D01*
X141373956Y-73812729D01*
X141382268Y-73818283D01*
X141382270Y-73818285D01*
X141384355Y-73819678D01*
X141389036Y-73823518D01*
X141394623Y-73828582D01*
X141887815Y-74321775D01*
X141892887Y-74327370D01*
X141896721Y-74332042D01*
X141905076Y-74344545D01*
X141907339Y-74348778D01*
X141913087Y-74362658D01*
X141914483Y-74367261D01*
X141917414Y-74381995D01*
X141917885Y-74386777D01*
X141917885Y-74401809D01*
X141917414Y-74406591D01*
X141914483Y-74421325D01*
X141913087Y-74425928D01*
X141907339Y-74439808D01*
X141905076Y-74444041D01*
X141896721Y-74456544D01*
X141892887Y-74461216D01*
X141887815Y-74466811D01*
X141678056Y-74676571D01*
X141671738Y-74684269D01*
X141667044Y-74693051D01*
X141664153Y-74702581D01*
X141663177Y-74712491D01*
X141664153Y-74722402D01*
X141667044Y-74731931D01*
X141671738Y-74740714D01*
X141678056Y-74748411D01*
X141851587Y-74921942D01*
X141859529Y-74931619D01*
X141864245Y-74940442D01*
X141867151Y-74950021D01*
X141868131Y-74959978D01*
X141867151Y-74969935D01*
X141864245Y-74979514D01*
X141859529Y-74988337D01*
X141851587Y-74998014D01*
X141148014Y-75701587D01*
X141138337Y-75709529D01*
X141129514Y-75714245D01*
X141119935Y-75717151D01*
X141109978Y-75718131D01*
X141100021Y-75717151D01*
X141090442Y-75714245D01*
X141081619Y-75709529D01*
X141071942Y-75701587D01*
X140898411Y-75528056D01*
X140890713Y-75521738D01*
X140881931Y-75517044D01*
X140872401Y-75514153D01*
X140862491Y-75513177D01*
X140852581Y-75514153D01*
X140843051Y-75517044D01*
X140834269Y-75521738D01*
X140826571Y-75528056D01*
X140546095Y-75808532D01*
X140540508Y-75813596D01*
X140535827Y-75817436D01*
X140533742Y-75818829D01*
X140533740Y-75818831D01*
X140526282Y-75823815D01*
X140523339Y-75825781D01*
X140519108Y-75828043D01*
X140516790Y-75829003D01*
X140516785Y-75829006D01*
X140507532Y-75832839D01*
X140507529Y-75832840D01*
X140505214Y-75833799D01*
X140500610Y-75835195D01*
X140498151Y-75835684D01*
X140488336Y-75837636D01*
X140488334Y-75837636D01*
X140485876Y-75838125D01*
X140481085Y-75838596D01*
X140466079Y-75838596D01*
X140461281Y-75838124D01*
X140446553Y-75835195D01*
X140441955Y-75833800D01*
X140439643Y-75832842D01*
X140439632Y-75832839D01*
X140430382Y-75829007D01*
X140430376Y-75829004D01*
X140428059Y-75828044D01*
X140423829Y-75825783D01*
X140411336Y-75817435D01*
X140406658Y-75813596D01*
X140401062Y-75808524D01*
X139907879Y-75315341D01*
X139902807Y-75309745D01*
X139898964Y-75305063D01*
X139890619Y-75292572D01*
X139888357Y-75288342D01*
X139882607Y-75274459D01*
X139881211Y-75269856D01*
X139880723Y-75267401D01*
X139880721Y-75267396D01*
X139878767Y-75257575D01*
X139878767Y-75257570D01*
X139878278Y-75255115D01*
X139877807Y-75250324D01*
X139877807Y-75235318D01*
X139878278Y-75230527D01*
X139878767Y-75228067D01*
X139880721Y-75218246D01*
X139880723Y-75218241D01*
X139881211Y-75215786D01*
X139882607Y-75211183D01*
X139888357Y-75197300D01*
X139890619Y-75193070D01*
X139898964Y-75180579D01*
X139902807Y-75175897D01*
X139907879Y-75170301D01*
X141249590Y-73828590D01*
X141255186Y-73823518D01*
X141259864Y-73819679D01*
X141272357Y-73811331D01*
X141276590Y-73809068D01*
X141278910Y-73808107D01*
X141288161Y-73804275D01*
X141288165Y-73804274D01*
X141290475Y-73803317D01*
X141295083Y-73801919D01*
X141309817Y-73798989D01*
X141314606Y-73798518D01*
X141329613Y-73798518D01*
X141334404Y-73798989D01*
X141334404Y-73798989D01*
G37*
G36*
X121193348Y-74589610D02*
G01*
X119949251Y-75104932D01*
X119221540Y-73348082D01*
X120465637Y-72832760D01*
X121193348Y-74589610D01*
X121193348Y-74589610D01*
G37*
G36*
X138407182Y-72588659D02*
G01*
X137679471Y-74345509D01*
X136435374Y-73830187D01*
X137163085Y-72073337D01*
X138407182Y-72588659D01*
X138407182Y-72588659D01*
G37*
G36*
X124135904Y-73370764D02*
G01*
X122891807Y-73886086D01*
X122164096Y-72129236D01*
X123408193Y-71613914D01*
X124135904Y-73370764D01*
X124135904Y-73370764D01*
G37*
G36*
X135464626Y-71369813D02*
G01*
X134736915Y-73126663D01*
X133492818Y-72611341D01*
X134220529Y-70854491D01*
X135464626Y-71369813D01*
X135464626Y-71369813D01*
G37*
G36*
X127731281Y-70349078D02*
G01*
X127737295Y-70349671D01*
X127752031Y-70352602D01*
X127756635Y-70353998D01*
X127770523Y-70359751D01*
X127774760Y-70362015D01*
X127787243Y-70370358D01*
X127790971Y-70373417D01*
X127801583Y-70384029D01*
X127804642Y-70387757D01*
X127812985Y-70400240D01*
X127815249Y-70404477D01*
X127821002Y-70418365D01*
X127822398Y-70422969D01*
X127825329Y-70437705D01*
X127825922Y-70443719D01*
X127826292Y-70451253D01*
X127826292Y-70747909D01*
X127827268Y-70757819D01*
X127830159Y-70767349D01*
X127834853Y-70776131D01*
X127841171Y-70783829D01*
X127848869Y-70790147D01*
X127857651Y-70794841D01*
X127867181Y-70797732D01*
X127877091Y-70798708D01*
X128122507Y-70798708D01*
X128134957Y-70799934D01*
X128144536Y-70802840D01*
X128153359Y-70807556D01*
X128161095Y-70813905D01*
X128167444Y-70821641D01*
X128172160Y-70830464D01*
X128175066Y-70840043D01*
X128176292Y-70852493D01*
X128176292Y-71847507D01*
X128175066Y-71859957D01*
X128172160Y-71869536D01*
X128167444Y-71878359D01*
X128161095Y-71886095D01*
X128153359Y-71892444D01*
X128144536Y-71897160D01*
X128134957Y-71900066D01*
X128122507Y-71901292D01*
X127877091Y-71901292D01*
X127867181Y-71902268D01*
X127857651Y-71905159D01*
X127848869Y-71909853D01*
X127841171Y-71916171D01*
X127834853Y-71923869D01*
X127830159Y-71932651D01*
X127827268Y-71942181D01*
X127826292Y-71952091D01*
X127826292Y-72348747D01*
X127825922Y-72356281D01*
X127825329Y-72362295D01*
X127822398Y-72377031D01*
X127821002Y-72381635D01*
X127815249Y-72395523D01*
X127812985Y-72399760D01*
X127804642Y-72412243D01*
X127801583Y-72415971D01*
X127790971Y-72426583D01*
X127787243Y-72429642D01*
X127774760Y-72437985D01*
X127770523Y-72440249D01*
X127756635Y-72446002D01*
X127752031Y-72447398D01*
X127737295Y-72450329D01*
X127731281Y-72450922D01*
X127723747Y-72451292D01*
X127026253Y-72451292D01*
X127018719Y-72450922D01*
X127012705Y-72450329D01*
X126997969Y-72447398D01*
X126993365Y-72446002D01*
X126979477Y-72440249D01*
X126975240Y-72437985D01*
X126962757Y-72429642D01*
X126959029Y-72426583D01*
X126948417Y-72415971D01*
X126945358Y-72412243D01*
X126937015Y-72399760D01*
X126934751Y-72395523D01*
X126928998Y-72381635D01*
X126927602Y-72377031D01*
X126924671Y-72362295D01*
X126924078Y-72356281D01*
X126923708Y-72348747D01*
X126923708Y-70451253D01*
X126924078Y-70443719D01*
X126924671Y-70437705D01*
X126927602Y-70422969D01*
X126928998Y-70418365D01*
X126934751Y-70404477D01*
X126937015Y-70400240D01*
X126945358Y-70387757D01*
X126948417Y-70384029D01*
X126959029Y-70373417D01*
X126962757Y-70370358D01*
X126975240Y-70362015D01*
X126979477Y-70359751D01*
X126993365Y-70353998D01*
X126997969Y-70352602D01*
X127012705Y-70349671D01*
X127018719Y-70349078D01*
X127026253Y-70348708D01*
X127723747Y-70348708D01*
X127731281Y-70349078D01*
X127731281Y-70349078D01*
G37*
G36*
X131225800Y-71900800D02*
G01*
X128624200Y-71900800D01*
X128624200Y-70799200D01*
X131225800Y-70799200D01*
X131225800Y-71900800D01*
X131225800Y-71900800D01*
G37*
G36*
X122502352Y-67508796D02*
G01*
X122784579Y-67625699D01*
X123038578Y-67795415D01*
X123254585Y-68011422D01*
X123424301Y-68265421D01*
X123541204Y-68547648D01*
X123600800Y-68847259D01*
X123600800Y-69152741D01*
X123541204Y-69452352D01*
X123424301Y-69734579D01*
X123254585Y-69988578D01*
X123038578Y-70204585D01*
X122784579Y-70374301D01*
X122502352Y-70491204D01*
X122202741Y-70550800D01*
X121897259Y-70550800D01*
X121597648Y-70491204D01*
X121315421Y-70374301D01*
X121061422Y-70204585D01*
X120845415Y-69988578D01*
X120675699Y-69734579D01*
X120558796Y-69452352D01*
X120499200Y-69152741D01*
X120499200Y-68847259D01*
X120558796Y-68547648D01*
X120675699Y-68265421D01*
X120845415Y-68011422D01*
X121061422Y-67795415D01*
X121315421Y-67625699D01*
X121597648Y-67508796D01*
X121897259Y-67449200D01*
X122202741Y-67449200D01*
X122502352Y-67508796D01*
X122502352Y-67508796D01*
G37*
G36*
X137452352Y-67508796D02*
G01*
X137734579Y-67625699D01*
X137988578Y-67795415D01*
X138204585Y-68011422D01*
X138374301Y-68265421D01*
X138491204Y-68547648D01*
X138550800Y-68847259D01*
X138550800Y-69152741D01*
X138491204Y-69452352D01*
X138374301Y-69734579D01*
X138204585Y-69988578D01*
X137988578Y-70204585D01*
X137734579Y-70374301D01*
X137452352Y-70491204D01*
X137152741Y-70550800D01*
X136847259Y-70550800D01*
X136547648Y-70491204D01*
X136265421Y-70374301D01*
X136011422Y-70204585D01*
X135795415Y-69988578D01*
X135625699Y-69734579D01*
X135508796Y-69452352D01*
X135449200Y-69152741D01*
X135449200Y-68847259D01*
X135508796Y-68547648D01*
X135625699Y-68265421D01*
X135795415Y-68011422D01*
X136011422Y-67795415D01*
X136265421Y-67625699D01*
X136547648Y-67508796D01*
X136847259Y-67449200D01*
X137152741Y-67449200D01*
X137452352Y-67508796D01*
X137452352Y-67508796D01*
G37*
G36*
X120050800Y-64098300D02*
G01*
X118049200Y-64098300D01*
X118049200Y-61621700D01*
X120050800Y-61621700D01*
X120050800Y-64098300D01*
X120050800Y-64098300D01*
G37*
G36*
X122450800Y-63200800D02*
G01*
X120249200Y-63200800D01*
X120249200Y-61624200D01*
X120918401Y-61624200D01*
X120928311Y-61623224D01*
X120937841Y-61620333D01*
X120946623Y-61615639D01*
X120954321Y-61609321D01*
X120960639Y-61601623D01*
X120965333Y-61592841D01*
X120968224Y-61583311D01*
X120969200Y-61573401D01*
X120969200Y-58326599D01*
X120968224Y-58316689D01*
X120965333Y-58307159D01*
X120960639Y-58298377D01*
X120954321Y-58290679D01*
X120946623Y-58284361D01*
X120937841Y-58279667D01*
X120928311Y-58276776D01*
X120918401Y-58275800D01*
X120249200Y-58275800D01*
X120249200Y-56699200D01*
X122450800Y-56699200D01*
X122450800Y-63200800D01*
X122450800Y-63200800D01*
G37*
G36*
X120050800Y-61428300D02*
G01*
X118049200Y-61428300D01*
X118049200Y-60151700D01*
X120050800Y-60151700D01*
X120050800Y-61428300D01*
X120050800Y-61428300D01*
G37*
G36*
X120050800Y-59748300D02*
G01*
X118049200Y-59748300D01*
X118049200Y-58471700D01*
X120050800Y-58471700D01*
X120050800Y-59748300D01*
X120050800Y-59748300D01*
G37*
G36*
X120050800Y-58278300D02*
G01*
X118049200Y-58278300D01*
X118049200Y-55801700D01*
X120050800Y-55801700D01*
X120050800Y-58278300D01*
X120050800Y-58278300D01*
G37*
G36*
X137402352Y-49858796D02*
G01*
X137684579Y-49975699D01*
X137938578Y-50145415D01*
X138154585Y-50361422D01*
X138324301Y-50615421D01*
X138441204Y-50897648D01*
X138500800Y-51197259D01*
X138500800Y-51502741D01*
X138441204Y-51802352D01*
X138324301Y-52084579D01*
X138154585Y-52338578D01*
X137938578Y-52554585D01*
X137684579Y-52724301D01*
X137402352Y-52841204D01*
X137102741Y-52900800D01*
X136797259Y-52900800D01*
X136497648Y-52841204D01*
X136215421Y-52724301D01*
X135961422Y-52554585D01*
X135745415Y-52338578D01*
X135575699Y-52084579D01*
X135458796Y-51802352D01*
X135399200Y-51502741D01*
X135399200Y-51197259D01*
X135458796Y-50897648D01*
X135575699Y-50615421D01*
X135745415Y-50361422D01*
X135961422Y-50145415D01*
X136215421Y-49975699D01*
X136497648Y-49858796D01*
X136797259Y-49799200D01*
X137102741Y-49799200D01*
X137402352Y-49858796D01*
X137402352Y-49858796D01*
G37*
G36*
X122502352Y-49858796D02*
G01*
X122784579Y-49975699D01*
X123038578Y-50145415D01*
X123254585Y-50361422D01*
X123424301Y-50615421D01*
X123541204Y-50897648D01*
X123600800Y-51197259D01*
X123600800Y-51502741D01*
X123541204Y-51802352D01*
X123424301Y-52084579D01*
X123254585Y-52338578D01*
X123038578Y-52554585D01*
X122784579Y-52724301D01*
X122502352Y-52841204D01*
X122202741Y-52900800D01*
X121897259Y-52900800D01*
X121597648Y-52841204D01*
X121315421Y-52724301D01*
X121061422Y-52554585D01*
X120845415Y-52338578D01*
X120675699Y-52084579D01*
X120558796Y-51802352D01*
X120499200Y-51502741D01*
X120499200Y-51197259D01*
X120558796Y-50897648D01*
X120675699Y-50615421D01*
X120845415Y-50361422D01*
X121061422Y-50145415D01*
X121315421Y-49975699D01*
X121597648Y-49858796D01*
X121897259Y-49799200D01*
X122202741Y-49799200D01*
X122502352Y-49858796D01*
X122502352Y-49858796D01*
G37*
M02*
