G04 #@! TF.GenerationSoftware,KiCad,Pcbnew,(5.1.0)-1*
G04 #@! TF.CreationDate,2019-04-30T21:22:08-04:00*
G04 #@! TF.ProjectId,MIcroscope_Light,4d496372-6f73-4636-9f70-655f4c696768,rev?*
G04 #@! TF.SameCoordinates,Original*
G04 #@! TF.FileFunction,Soldermask,Top*
G04 #@! TF.FilePolarity,Negative*
%FSLAX46Y46*%
G04 Gerber Fmt 4.6, Leading zero omitted, Abs format (unit mm)*
G04 Created by KiCad (PCBNEW (5.1.0)-1) date 2019-04-30 21:22:08*
%MOMM*%
%LPD*%
G04 APERTURE LIST*
%ADD10C,0.050000*%
%ADD11C,0.100000*%
G04 APERTURE END LIST*
D10*
X147075000Y-91500000D02*
G75*
G03X147075000Y-91500000I-17575000J0D01*
G01*
X141450000Y-72950000D02*
G75*
G02X117550000Y-72950000I-11950000J-18550000D01*
G01*
X141500000Y-46850000D02*
X141450000Y-72950000D01*
X117550000Y-46850000D02*
X141500000Y-46850000D01*
X117550000Y-72950000D02*
X117550000Y-46850000D01*
D11*
G36*
X137452352Y-67508796D02*
G01*
X137734579Y-67625699D01*
X137988578Y-67795415D01*
X138204585Y-68011422D01*
X138374301Y-68265421D01*
X138491204Y-68547648D01*
X138550800Y-68847259D01*
X138550800Y-69152741D01*
X138491204Y-69452352D01*
X138374301Y-69734579D01*
X138204585Y-69988578D01*
X137988578Y-70204585D01*
X137734579Y-70374301D01*
X137452352Y-70491204D01*
X137152741Y-70550800D01*
X136847259Y-70550800D01*
X136547648Y-70491204D01*
X136265421Y-70374301D01*
X136011422Y-70204585D01*
X135795415Y-69988578D01*
X135625699Y-69734579D01*
X135508796Y-69452352D01*
X135449200Y-69152741D01*
X135449200Y-68847259D01*
X135508796Y-68547648D01*
X135625699Y-68265421D01*
X135795415Y-68011422D01*
X136011422Y-67795415D01*
X136265421Y-67625699D01*
X136547648Y-67508796D01*
X136847259Y-67449200D01*
X137152741Y-67449200D01*
X137452352Y-67508796D01*
X137452352Y-67508796D01*
G37*
G36*
X122502352Y-67508796D02*
G01*
X122784579Y-67625699D01*
X123038578Y-67795415D01*
X123254585Y-68011422D01*
X123424301Y-68265421D01*
X123541204Y-68547648D01*
X123600800Y-68847259D01*
X123600800Y-69152741D01*
X123541204Y-69452352D01*
X123424301Y-69734579D01*
X123254585Y-69988578D01*
X123038578Y-70204585D01*
X122784579Y-70374301D01*
X122502352Y-70491204D01*
X122202741Y-70550800D01*
X121897259Y-70550800D01*
X121597648Y-70491204D01*
X121315421Y-70374301D01*
X121061422Y-70204585D01*
X120845415Y-69988578D01*
X120675699Y-69734579D01*
X120558796Y-69452352D01*
X120499200Y-69152741D01*
X120499200Y-68847259D01*
X120558796Y-68547648D01*
X120675699Y-68265421D01*
X120845415Y-68011422D01*
X121061422Y-67795415D01*
X121315421Y-67625699D01*
X121597648Y-67508796D01*
X121897259Y-67449200D01*
X122202741Y-67449200D01*
X122502352Y-67508796D01*
X122502352Y-67508796D01*
G37*
G36*
X137402352Y-49858796D02*
G01*
X137684579Y-49975699D01*
X137938578Y-50145415D01*
X138154585Y-50361422D01*
X138324301Y-50615421D01*
X138441204Y-50897648D01*
X138500800Y-51197259D01*
X138500800Y-51502741D01*
X138441204Y-51802352D01*
X138324301Y-52084579D01*
X138154585Y-52338578D01*
X137938578Y-52554585D01*
X137684579Y-52724301D01*
X137402352Y-52841204D01*
X137102741Y-52900800D01*
X136797259Y-52900800D01*
X136497648Y-52841204D01*
X136215421Y-52724301D01*
X135961422Y-52554585D01*
X135745415Y-52338578D01*
X135575699Y-52084579D01*
X135458796Y-51802352D01*
X135399200Y-51502741D01*
X135399200Y-51197259D01*
X135458796Y-50897648D01*
X135575699Y-50615421D01*
X135745415Y-50361422D01*
X135961422Y-50145415D01*
X136215421Y-49975699D01*
X136497648Y-49858796D01*
X136797259Y-49799200D01*
X137102741Y-49799200D01*
X137402352Y-49858796D01*
X137402352Y-49858796D01*
G37*
G36*
X122502352Y-49858796D02*
G01*
X122784579Y-49975699D01*
X123038578Y-50145415D01*
X123254585Y-50361422D01*
X123424301Y-50615421D01*
X123541204Y-50897648D01*
X123600800Y-51197259D01*
X123600800Y-51502741D01*
X123541204Y-51802352D01*
X123424301Y-52084579D01*
X123254585Y-52338578D01*
X123038578Y-52554585D01*
X122784579Y-52724301D01*
X122502352Y-52841204D01*
X122202741Y-52900800D01*
X121897259Y-52900800D01*
X121597648Y-52841204D01*
X121315421Y-52724301D01*
X121061422Y-52554585D01*
X120845415Y-52338578D01*
X120675699Y-52084579D01*
X120558796Y-51802352D01*
X120499200Y-51502741D01*
X120499200Y-51197259D01*
X120558796Y-50897648D01*
X120675699Y-50615421D01*
X120845415Y-50361422D01*
X121061422Y-50145415D01*
X121315421Y-49975699D01*
X121597648Y-49858796D01*
X121897259Y-49799200D01*
X122202741Y-49799200D01*
X122502352Y-49858796D01*
X122502352Y-49858796D01*
G37*
M02*
